<?xml version="1.0" encoding="utf-8" standalone="no"?>
<!DOCTYPE svg PUBLIC "-//W3C//DTD SVG 1.1//EN"
  "http://www.w3.org/Graphics/SVG/1.1/DTD/svg11.dtd">
<svg xmlns:xlink="http://www.w3.org/1999/xlink" width="742.788355pt" height="292.13551pt" viewBox="0 0 742.788355 292.13551" xmlns="http://www.w3.org/2000/svg" version="1.1">
 <metadata>
  <rdf:RDF xmlns:dc="http://purl.org/dc/elements/1.1/" xmlns:cc="http://creativecommons.org/ns#" xmlns:rdf="http://www.w3.org/1999/02/22-rdf-syntax-ns#">
   <cc:Work>
    <dc:type rdf:resource="http://purl.org/dc/dcmitype/StillImage"/>
    <dc:date>2026-07-17T18:22:52.361692</dc:date>
    <dc:format>image/svg+xml</dc:format>
    <dc:creator>
     <cc:Agent>
      <dc:title>Matplotlib v3.8.0, https://matplotlib.org/</dc:title>
     </cc:Agent>
    </dc:creator>
   </cc:Work>
  </rdf:RDF>
 </metadata>
 <defs>
  <style type="text/css">*{stroke-linejoin: round; stroke-linecap: butt}</style>
 </defs>
 <g id="figure_1">
  <g id="patch_1">
   <path d="M 0 292.13551
L 742.788355 292.13551
L 742.788355 0
L 0 0
z
" style="fill: #ffffff"/>
  </g>
  <g id="axes_1">
   <g id="patch_2">
    <path d="M 74.940156 246.018895
L 350.710913 246.018895
L 350.710913 38.812667
L 74.940156 38.812667
z
" style="fill: #ffffff"/>
   </g>
   <g id="matplotlib.axis_1">
    <g id="xtick_1">
     <g id="line2d_1">
      <path d="M 117.248227 246.018895
L 117.248227 38.812667
" clip-path="url(#p7dedb4eebf)" style="fill: none; stroke: #d8d8d8; stroke-width: 0.8; stroke-linecap: square"/>
     </g>
     <g id="line2d_2">
      <defs>
       <path id="m1dcfbab889" d="M 0 0
L 0 3.5
" style="stroke: #000000; stroke-width: 0.8"/>
      </defs>
      <g>
       <use xlink:href="#m1dcfbab889" x="117.248227" y="246.018895" style="stroke: #000000; stroke-width: 0.8"/>
      </g>
     </g>
     <g id="text_1">
      <!-- $\mathdefault{10^{0}}$ -->
      <g transform="translate(109.328227 259.857489) scale(0.09 -0.09)">
       <defs>
        <path id="DejaVuSans-31" d="M 794 531
L 1825 531
L 1825 4091
L 703 3866
L 703 4441
L 1819 4666
L 2450 4666
L 2450 531
L 3481 531
L 3481 0
L 794 0
L 794 531
z
" transform="scale(0.015625)"/>
        <path id="DejaVuSans-30" d="M 2034 4250
Q 1547 4250 1301 3770
Q 1056 3291 1056 2328
Q 1056 1369 1301 889
Q 1547 409 2034 409
Q 2525 409 2770 889
Q 3016 1369 3016 2328
Q 3016 3291 2770 3770
Q 2525 4250 2034 4250
z
M 2034 4750
Q 2819 4750 3233 4129
Q 3647 3509 3647 2328
Q 3647 1150 3233 529
Q 2819 -91 2034 -91
Q 1250 -91 836 529
Q 422 1150 422 2328
Q 422 3509 836 4129
Q 1250 4750 2034 4750
z
" transform="scale(0.015625)"/>
       </defs>
       <use xlink:href="#DejaVuSans-31" transform="translate(0 0.765625)"/>
       <use xlink:href="#DejaVuSans-30" transform="translate(63.623047 0.765625)"/>
       <use xlink:href="#DejaVuSans-30" transform="translate(128.203125 39.046875) scale(0.7)"/>
      </g>
     </g>
    </g>
    <g id="xtick_2">
     <g id="line2d_3">
      <path d="M 196.613406 246.018895
L 196.613406 38.812667
" clip-path="url(#p7dedb4eebf)" style="fill: none; stroke: #d8d8d8; stroke-width: 0.8; stroke-linecap: square"/>
     </g>
     <g id="line2d_4">
      <g>
       <use xlink:href="#m1dcfbab889" x="196.613406" y="246.018895" style="stroke: #000000; stroke-width: 0.8"/>
      </g>
     </g>
     <g id="text_2">
      <!-- $\mathdefault{10^{1}}$ -->
      <g transform="translate(188.693406 259.857489) scale(0.09 -0.09)">
       <use xlink:href="#DejaVuSans-31" transform="translate(0 0.684375)"/>
       <use xlink:href="#DejaVuSans-30" transform="translate(63.623047 0.684375)"/>
       <use xlink:href="#DejaVuSans-31" transform="translate(128.203125 38.965625) scale(0.7)"/>
      </g>
     </g>
    </g>
    <g id="xtick_3">
     <g id="line2d_5">
      <path d="M 275.978585 246.018895
L 275.978585 38.812667
" clip-path="url(#p7dedb4eebf)" style="fill: none; stroke: #d8d8d8; stroke-width: 0.8; stroke-linecap: square"/>
     </g>
     <g id="line2d_6">
      <g>
       <use xlink:href="#m1dcfbab889" x="275.978585" y="246.018895" style="stroke: #000000; stroke-width: 0.8"/>
      </g>
     </g>
     <g id="text_3">
      <!-- $\mathdefault{10^{2}}$ -->
      <g transform="translate(268.058585 259.857489) scale(0.09 -0.09)">
       <defs>
        <path id="DejaVuSans-32" d="M 1228 531
L 3431 531
L 3431 0
L 469 0
L 469 531
Q 828 903 1448 1529
Q 2069 2156 2228 2338
Q 2531 2678 2651 2914
Q 2772 3150 2772 3378
Q 2772 3750 2511 3984
Q 2250 4219 1831 4219
Q 1534 4219 1204 4116
Q 875 4013 500 3803
L 500 4441
Q 881 4594 1212 4672
Q 1544 4750 1819 4750
Q 2544 4750 2975 4387
Q 3406 4025 3406 3419
Q 3406 3131 3298 2873
Q 3191 2616 2906 2266
Q 2828 2175 2409 1742
Q 1991 1309 1228 531
z
" transform="scale(0.015625)"/>
       </defs>
       <use xlink:href="#DejaVuSans-31" transform="translate(0 0.765625)"/>
       <use xlink:href="#DejaVuSans-30" transform="translate(63.623047 0.765625)"/>
       <use xlink:href="#DejaVuSans-32" transform="translate(128.203125 39.046875) scale(0.7)"/>
      </g>
     </g>
    </g>
    <g id="xtick_4">
     <g id="line2d_7">
      <path d="M 75.749861 246.018895
L 75.749861 38.812667
" clip-path="url(#p7dedb4eebf)" style="fill: none; stroke: #eeeeee; stroke-width: 0.5; stroke-linecap: square"/>
     </g>
     <g id="line2d_8">
      <defs>
       <path id="ma1b5a9a7c3" d="M 0 0
L 0 2
" style="stroke: #000000; stroke-width: 0.6"/>
      </defs>
      <g>
       <use xlink:href="#ma1b5a9a7c3" x="75.749861" y="246.018895" style="stroke: #000000; stroke-width: 0.6"/>
      </g>
     </g>
    </g>
    <g id="xtick_5">
     <g id="line2d_9">
      <path d="M 85.665646 246.018895
L 85.665646 38.812667
" clip-path="url(#p7dedb4eebf)" style="fill: none; stroke: #eeeeee; stroke-width: 0.5; stroke-linecap: square"/>
     </g>
     <g id="line2d_10">
      <g>
       <use xlink:href="#ma1b5a9a7c3" x="85.665646" y="246.018895" style="stroke: #000000; stroke-width: 0.6"/>
      </g>
     </g>
    </g>
    <g id="xtick_6">
     <g id="line2d_11">
      <path d="M 93.356927 246.018895
L 93.356927 38.812667
" clip-path="url(#p7dedb4eebf)" style="fill: none; stroke: #eeeeee; stroke-width: 0.5; stroke-linecap: square"/>
     </g>
     <g id="line2d_12">
      <g>
       <use xlink:href="#ma1b5a9a7c3" x="93.356927" y="246.018895" style="stroke: #000000; stroke-width: 0.6"/>
      </g>
     </g>
    </g>
    <g id="xtick_7">
     <g id="line2d_13">
      <path d="M 99.641161 246.018895
L 99.641161 38.812667
" clip-path="url(#p7dedb4eebf)" style="fill: none; stroke: #eeeeee; stroke-width: 0.5; stroke-linecap: square"/>
     </g>
     <g id="line2d_14">
      <g>
       <use xlink:href="#ma1b5a9a7c3" x="99.641161" y="246.018895" style="stroke: #000000; stroke-width: 0.6"/>
      </g>
     </g>
    </g>
    <g id="xtick_8">
     <g id="line2d_15">
      <path d="M 104.954405 246.018895
L 104.954405 38.812667
" clip-path="url(#p7dedb4eebf)" style="fill: none; stroke: #eeeeee; stroke-width: 0.5; stroke-linecap: square"/>
     </g>
     <g id="line2d_16">
      <g>
       <use xlink:href="#ma1b5a9a7c3" x="104.954405" y="246.018895" style="stroke: #000000; stroke-width: 0.6"/>
      </g>
     </g>
    </g>
    <g id="xtick_9">
     <g id="line2d_17">
      <path d="M 109.556946 246.018895
L 109.556946 38.812667
" clip-path="url(#p7dedb4eebf)" style="fill: none; stroke: #eeeeee; stroke-width: 0.5; stroke-linecap: square"/>
     </g>
     <g id="line2d_18">
      <g>
       <use xlink:href="#ma1b5a9a7c3" x="109.556946" y="246.018895" style="stroke: #000000; stroke-width: 0.6"/>
      </g>
     </g>
    </g>
    <g id="xtick_10">
     <g id="line2d_19">
      <path d="M 113.616675 246.018895
L 113.616675 38.812667
" clip-path="url(#p7dedb4eebf)" style="fill: none; stroke: #eeeeee; stroke-width: 0.5; stroke-linecap: square"/>
     </g>
     <g id="line2d_20">
      <g>
       <use xlink:href="#ma1b5a9a7c3" x="113.616675" y="246.018895" style="stroke: #000000; stroke-width: 0.6"/>
      </g>
     </g>
    </g>
    <g id="xtick_11">
     <g id="line2d_21">
      <path d="M 141.139526 246.018895
L 141.139526 38.812667
" clip-path="url(#p7dedb4eebf)" style="fill: none; stroke: #eeeeee; stroke-width: 0.5; stroke-linecap: square"/>
     </g>
     <g id="line2d_22">
      <g>
       <use xlink:href="#ma1b5a9a7c3" x="141.139526" y="246.018895" style="stroke: #000000; stroke-width: 0.6"/>
      </g>
     </g>
    </g>
    <g id="xtick_12">
     <g id="line2d_23">
      <path d="M 155.11504 246.018895
L 155.11504 38.812667
" clip-path="url(#p7dedb4eebf)" style="fill: none; stroke: #eeeeee; stroke-width: 0.5; stroke-linecap: square"/>
     </g>
     <g id="line2d_24">
      <g>
       <use xlink:href="#ma1b5a9a7c3" x="155.11504" y="246.018895" style="stroke: #000000; stroke-width: 0.6"/>
      </g>
     </g>
    </g>
    <g id="xtick_13">
     <g id="line2d_25">
      <path d="M 165.030826 246.018895
L 165.030826 38.812667
" clip-path="url(#p7dedb4eebf)" style="fill: none; stroke: #eeeeee; stroke-width: 0.5; stroke-linecap: square"/>
     </g>
     <g id="line2d_26">
      <g>
       <use xlink:href="#ma1b5a9a7c3" x="165.030826" y="246.018895" style="stroke: #000000; stroke-width: 0.6"/>
      </g>
     </g>
    </g>
    <g id="xtick_14">
     <g id="line2d_27">
      <path d="M 172.722106 246.018895
L 172.722106 38.812667
" clip-path="url(#p7dedb4eebf)" style="fill: none; stroke: #eeeeee; stroke-width: 0.5; stroke-linecap: square"/>
     </g>
     <g id="line2d_28">
      <g>
       <use xlink:href="#ma1b5a9a7c3" x="172.722106" y="246.018895" style="stroke: #000000; stroke-width: 0.6"/>
      </g>
     </g>
    </g>
    <g id="xtick_15">
     <g id="line2d_29">
      <path d="M 179.00634 246.018895
L 179.00634 38.812667
" clip-path="url(#p7dedb4eebf)" style="fill: none; stroke: #eeeeee; stroke-width: 0.5; stroke-linecap: square"/>
     </g>
     <g id="line2d_30">
      <g>
       <use xlink:href="#ma1b5a9a7c3" x="179.00634" y="246.018895" style="stroke: #000000; stroke-width: 0.6"/>
      </g>
     </g>
    </g>
    <g id="xtick_16">
     <g id="line2d_31">
      <path d="M 184.319584 246.018895
L 184.319584 38.812667
" clip-path="url(#p7dedb4eebf)" style="fill: none; stroke: #eeeeee; stroke-width: 0.5; stroke-linecap: square"/>
     </g>
     <g id="line2d_32">
      <g>
       <use xlink:href="#ma1b5a9a7c3" x="184.319584" y="246.018895" style="stroke: #000000; stroke-width: 0.6"/>
      </g>
     </g>
    </g>
    <g id="xtick_17">
     <g id="line2d_33">
      <path d="M 188.922125 246.018895
L 188.922125 38.812667
" clip-path="url(#p7dedb4eebf)" style="fill: none; stroke: #eeeeee; stroke-width: 0.5; stroke-linecap: square"/>
     </g>
     <g id="line2d_34">
      <g>
       <use xlink:href="#ma1b5a9a7c3" x="188.922125" y="246.018895" style="stroke: #000000; stroke-width: 0.6"/>
      </g>
     </g>
    </g>
    <g id="xtick_18">
     <g id="line2d_35">
      <path d="M 192.981854 246.018895
L 192.981854 38.812667
" clip-path="url(#p7dedb4eebf)" style="fill: none; stroke: #eeeeee; stroke-width: 0.5; stroke-linecap: square"/>
     </g>
     <g id="line2d_36">
      <g>
       <use xlink:href="#ma1b5a9a7c3" x="192.981854" y="246.018895" style="stroke: #000000; stroke-width: 0.6"/>
      </g>
     </g>
    </g>
    <g id="xtick_19">
     <g id="line2d_37">
      <path d="M 220.504705 246.018895
L 220.504705 38.812667
" clip-path="url(#p7dedb4eebf)" style="fill: none; stroke: #eeeeee; stroke-width: 0.5; stroke-linecap: square"/>
     </g>
     <g id="line2d_38">
      <g>
       <use xlink:href="#ma1b5a9a7c3" x="220.504705" y="246.018895" style="stroke: #000000; stroke-width: 0.6"/>
      </g>
     </g>
    </g>
    <g id="xtick_20">
     <g id="line2d_39">
      <path d="M 234.48022 246.018895
L 234.48022 38.812667
" clip-path="url(#p7dedb4eebf)" style="fill: none; stroke: #eeeeee; stroke-width: 0.5; stroke-linecap: square"/>
     </g>
     <g id="line2d_40">
      <g>
       <use xlink:href="#ma1b5a9a7c3" x="234.48022" y="246.018895" style="stroke: #000000; stroke-width: 0.6"/>
      </g>
     </g>
    </g>
    <g id="xtick_21">
     <g id="line2d_41">
      <path d="M 244.396005 246.018895
L 244.396005 38.812667
" clip-path="url(#p7dedb4eebf)" style="fill: none; stroke: #eeeeee; stroke-width: 0.5; stroke-linecap: square"/>
     </g>
     <g id="line2d_42">
      <g>
       <use xlink:href="#ma1b5a9a7c3" x="244.396005" y="246.018895" style="stroke: #000000; stroke-width: 0.6"/>
      </g>
     </g>
    </g>
    <g id="xtick_22">
     <g id="line2d_43">
      <path d="M 252.087285 246.018895
L 252.087285 38.812667
" clip-path="url(#p7dedb4eebf)" style="fill: none; stroke: #eeeeee; stroke-width: 0.5; stroke-linecap: square"/>
     </g>
     <g id="line2d_44">
      <g>
       <use xlink:href="#ma1b5a9a7c3" x="252.087285" y="246.018895" style="stroke: #000000; stroke-width: 0.6"/>
      </g>
     </g>
    </g>
    <g id="xtick_23">
     <g id="line2d_45">
      <path d="M 258.371519 246.018895
L 258.371519 38.812667
" clip-path="url(#p7dedb4eebf)" style="fill: none; stroke: #eeeeee; stroke-width: 0.5; stroke-linecap: square"/>
     </g>
     <g id="line2d_46">
      <g>
       <use xlink:href="#ma1b5a9a7c3" x="258.371519" y="246.018895" style="stroke: #000000; stroke-width: 0.6"/>
      </g>
     </g>
    </g>
    <g id="xtick_24">
     <g id="line2d_47">
      <path d="M 263.684763 246.018895
L 263.684763 38.812667
" clip-path="url(#p7dedb4eebf)" style="fill: none; stroke: #eeeeee; stroke-width: 0.5; stroke-linecap: square"/>
     </g>
     <g id="line2d_48">
      <g>
       <use xlink:href="#ma1b5a9a7c3" x="263.684763" y="246.018895" style="stroke: #000000; stroke-width: 0.6"/>
      </g>
     </g>
    </g>
    <g id="xtick_25">
     <g id="line2d_49">
      <path d="M 268.287304 246.018895
L 268.287304 38.812667
" clip-path="url(#p7dedb4eebf)" style="fill: none; stroke: #eeeeee; stroke-width: 0.5; stroke-linecap: square"/>
     </g>
     <g id="line2d_50">
      <g>
       <use xlink:href="#ma1b5a9a7c3" x="268.287304" y="246.018895" style="stroke: #000000; stroke-width: 0.6"/>
      </g>
     </g>
    </g>
    <g id="xtick_26">
     <g id="line2d_51">
      <path d="M 272.347033 246.018895
L 272.347033 38.812667
" clip-path="url(#p7dedb4eebf)" style="fill: none; stroke: #eeeeee; stroke-width: 0.5; stroke-linecap: square"/>
     </g>
     <g id="line2d_52">
      <g>
       <use xlink:href="#ma1b5a9a7c3" x="272.347033" y="246.018895" style="stroke: #000000; stroke-width: 0.6"/>
      </g>
     </g>
    </g>
    <g id="xtick_27">
     <g id="line2d_53">
      <path d="M 299.869884 246.018895
L 299.869884 38.812667
" clip-path="url(#p7dedb4eebf)" style="fill: none; stroke: #eeeeee; stroke-width: 0.5; stroke-linecap: square"/>
     </g>
     <g id="line2d_54">
      <g>
       <use xlink:href="#ma1b5a9a7c3" x="299.869884" y="246.018895" style="stroke: #000000; stroke-width: 0.6"/>
      </g>
     </g>
    </g>
    <g id="xtick_28">
     <g id="line2d_55">
      <path d="M 313.845399 246.018895
L 313.845399 38.812667
" clip-path="url(#p7dedb4eebf)" style="fill: none; stroke: #eeeeee; stroke-width: 0.5; stroke-linecap: square"/>
     </g>
     <g id="line2d_56">
      <g>
       <use xlink:href="#ma1b5a9a7c3" x="313.845399" y="246.018895" style="stroke: #000000; stroke-width: 0.6"/>
      </g>
     </g>
    </g>
    <g id="xtick_29">
     <g id="line2d_57">
      <path d="M 323.761184 246.018895
L 323.761184 38.812667
" clip-path="url(#p7dedb4eebf)" style="fill: none; stroke: #eeeeee; stroke-width: 0.5; stroke-linecap: square"/>
     </g>
     <g id="line2d_58">
      <g>
       <use xlink:href="#ma1b5a9a7c3" x="323.761184" y="246.018895" style="stroke: #000000; stroke-width: 0.6"/>
      </g>
     </g>
    </g>
    <g id="xtick_30">
     <g id="line2d_59">
      <path d="M 331.452465 246.018895
L 331.452465 38.812667
" clip-path="url(#p7dedb4eebf)" style="fill: none; stroke: #eeeeee; stroke-width: 0.5; stroke-linecap: square"/>
     </g>
     <g id="line2d_60">
      <g>
       <use xlink:href="#ma1b5a9a7c3" x="331.452465" y="246.018895" style="stroke: #000000; stroke-width: 0.6"/>
      </g>
     </g>
    </g>
    <g id="xtick_31">
     <g id="line2d_61">
      <path d="M 337.736698 246.018895
L 337.736698 38.812667
" clip-path="url(#p7dedb4eebf)" style="fill: none; stroke: #eeeeee; stroke-width: 0.5; stroke-linecap: square"/>
     </g>
     <g id="line2d_62">
      <g>
       <use xlink:href="#ma1b5a9a7c3" x="337.736698" y="246.018895" style="stroke: #000000; stroke-width: 0.6"/>
      </g>
     </g>
    </g>
    <g id="xtick_32">
     <g id="line2d_63">
      <path d="M 343.049942 246.018895
L 343.049942 38.812667
" clip-path="url(#p7dedb4eebf)" style="fill: none; stroke: #eeeeee; stroke-width: 0.5; stroke-linecap: square"/>
     </g>
     <g id="line2d_64">
      <g>
       <use xlink:href="#ma1b5a9a7c3" x="343.049942" y="246.018895" style="stroke: #000000; stroke-width: 0.6"/>
      </g>
     </g>
    </g>
    <g id="xtick_33">
     <g id="line2d_65">
      <path d="M 347.652484 246.018895
L 347.652484 38.812667
" clip-path="url(#p7dedb4eebf)" style="fill: none; stroke: #eeeeee; stroke-width: 0.5; stroke-linecap: square"/>
     </g>
     <g id="line2d_66">
      <g>
       <use xlink:href="#ma1b5a9a7c3" x="347.652484" y="246.018895" style="stroke: #000000; stroke-width: 0.6"/>
      </g>
     </g>
    </g>
    <g id="text_4">
     <!-- Temps mural (secondes, échelle logarithmique) -->
     <g transform="translate(105.992722 272.927801) scale(0.09 -0.09)">
      <defs>
       <path id="DejaVuSans-54" d="M -19 4666
L 3928 4666
L 3928 4134
L 2272 4134
L 2272 0
L 1638 0
L 1638 4134
L -19 4134
L -19 4666
z
" transform="scale(0.015625)"/>
       <path id="DejaVuSans-65" d="M 3597 1894
L 3597 1613
L 953 1613
Q 991 1019 1311 708
Q 1631 397 2203 397
Q 2534 397 2845 478
Q 3156 559 3463 722
L 3463 178
Q 3153 47 2828 -22
Q 2503 -91 2169 -91
Q 1331 -91 842 396
Q 353 884 353 1716
Q 353 2575 817 3079
Q 1281 3584 2069 3584
Q 2775 3584 3186 3129
Q 3597 2675 3597 1894
z
M 3022 2063
Q 3016 2534 2758 2815
Q 2500 3097 2075 3097
Q 1594 3097 1305 2825
Q 1016 2553 972 2059
L 3022 2063
z
" transform="scale(0.015625)"/>
       <path id="DejaVuSans-6d" d="M 3328 2828
Q 3544 3216 3844 3400
Q 4144 3584 4550 3584
Q 5097 3584 5394 3201
Q 5691 2819 5691 2113
L 5691 0
L 5113 0
L 5113 2094
Q 5113 2597 4934 2840
Q 4756 3084 4391 3084
Q 3944 3084 3684 2787
Q 3425 2491 3425 1978
L 3425 0
L 2847 0
L 2847 2094
Q 2847 2600 2669 2842
Q 2491 3084 2119 3084
Q 1678 3084 1418 2786
Q 1159 2488 1159 1978
L 1159 0
L 581 0
L 581 3500
L 1159 3500
L 1159 2956
Q 1356 3278 1631 3431
Q 1906 3584 2284 3584
Q 2666 3584 2933 3390
Q 3200 3197 3328 2828
z
" transform="scale(0.015625)"/>
       <path id="DejaVuSans-70" d="M 1159 525
L 1159 -1331
L 581 -1331
L 581 3500
L 1159 3500
L 1159 2969
Q 1341 3281 1617 3432
Q 1894 3584 2278 3584
Q 2916 3584 3314 3078
Q 3713 2572 3713 1747
Q 3713 922 3314 415
Q 2916 -91 2278 -91
Q 1894 -91 1617 61
Q 1341 213 1159 525
z
M 3116 1747
Q 3116 2381 2855 2742
Q 2594 3103 2138 3103
Q 1681 3103 1420 2742
Q 1159 2381 1159 1747
Q 1159 1113 1420 752
Q 1681 391 2138 391
Q 2594 391 2855 752
Q 3116 1113 3116 1747
z
" transform="scale(0.015625)"/>
       <path id="DejaVuSans-73" d="M 2834 3397
L 2834 2853
Q 2591 2978 2328 3040
Q 2066 3103 1784 3103
Q 1356 3103 1142 2972
Q 928 2841 928 2578
Q 928 2378 1081 2264
Q 1234 2150 1697 2047
L 1894 2003
Q 2506 1872 2764 1633
Q 3022 1394 3022 966
Q 3022 478 2636 193
Q 2250 -91 1575 -91
Q 1294 -91 989 -36
Q 684 19 347 128
L 347 722
Q 666 556 975 473
Q 1284 391 1588 391
Q 1994 391 2212 530
Q 2431 669 2431 922
Q 2431 1156 2273 1281
Q 2116 1406 1581 1522
L 1381 1569
Q 847 1681 609 1914
Q 372 2147 372 2553
Q 372 3047 722 3315
Q 1072 3584 1716 3584
Q 2034 3584 2315 3537
Q 2597 3491 2834 3397
z
" transform="scale(0.015625)"/>
       <path id="DejaVuSans-20" transform="scale(0.015625)"/>
       <path id="DejaVuSans-75" d="M 544 1381
L 544 3500
L 1119 3500
L 1119 1403
Q 1119 906 1312 657
Q 1506 409 1894 409
Q 2359 409 2629 706
Q 2900 1003 2900 1516
L 2900 3500
L 3475 3500
L 3475 0
L 2900 0
L 2900 538
Q 2691 219 2414 64
Q 2138 -91 1772 -91
Q 1169 -91 856 284
Q 544 659 544 1381
z
M 1991 3584
L 1991 3584
z
" transform="scale(0.015625)"/>
       <path id="DejaVuSans-72" d="M 2631 2963
Q 2534 3019 2420 3045
Q 2306 3072 2169 3072
Q 1681 3072 1420 2755
Q 1159 2438 1159 1844
L 1159 0
L 581 0
L 581 3500
L 1159 3500
L 1159 2956
Q 1341 3275 1631 3429
Q 1922 3584 2338 3584
Q 2397 3584 2469 3576
Q 2541 3569 2628 3553
L 2631 2963
z
" transform="scale(0.015625)"/>
       <path id="DejaVuSans-61" d="M 2194 1759
Q 1497 1759 1228 1600
Q 959 1441 959 1056
Q 959 750 1161 570
Q 1363 391 1709 391
Q 2188 391 2477 730
Q 2766 1069 2766 1631
L 2766 1759
L 2194 1759
z
M 3341 1997
L 3341 0
L 2766 0
L 2766 531
Q 2569 213 2275 61
Q 1981 -91 1556 -91
Q 1019 -91 701 211
Q 384 513 384 1019
Q 384 1609 779 1909
Q 1175 2209 1959 2209
L 2766 2209
L 2766 2266
Q 2766 2663 2505 2880
Q 2244 3097 1772 3097
Q 1472 3097 1187 3025
Q 903 2953 641 2809
L 641 3341
Q 956 3463 1253 3523
Q 1550 3584 1831 3584
Q 2591 3584 2966 3190
Q 3341 2797 3341 1997
z
" transform="scale(0.015625)"/>
       <path id="DejaVuSans-6c" d="M 603 4863
L 1178 4863
L 1178 0
L 603 0
L 603 4863
z
" transform="scale(0.015625)"/>
       <path id="DejaVuSans-28" d="M 1984 4856
Q 1566 4138 1362 3434
Q 1159 2731 1159 2009
Q 1159 1288 1364 580
Q 1569 -128 1984 -844
L 1484 -844
Q 1016 -109 783 600
Q 550 1309 550 2009
Q 550 2706 781 3412
Q 1013 4119 1484 4856
L 1984 4856
z
" transform="scale(0.015625)"/>
       <path id="DejaVuSans-63" d="M 3122 3366
L 3122 2828
Q 2878 2963 2633 3030
Q 2388 3097 2138 3097
Q 1578 3097 1268 2742
Q 959 2388 959 1747
Q 959 1106 1268 751
Q 1578 397 2138 397
Q 2388 397 2633 464
Q 2878 531 3122 666
L 3122 134
Q 2881 22 2623 -34
Q 2366 -91 2075 -91
Q 1284 -91 818 406
Q 353 903 353 1747
Q 353 2603 823 3093
Q 1294 3584 2113 3584
Q 2378 3584 2631 3529
Q 2884 3475 3122 3366
z
" transform="scale(0.015625)"/>
       <path id="DejaVuSans-6f" d="M 1959 3097
Q 1497 3097 1228 2736
Q 959 2375 959 1747
Q 959 1119 1226 758
Q 1494 397 1959 397
Q 2419 397 2687 759
Q 2956 1122 2956 1747
Q 2956 2369 2687 2733
Q 2419 3097 1959 3097
z
M 1959 3584
Q 2709 3584 3137 3096
Q 3566 2609 3566 1747
Q 3566 888 3137 398
Q 2709 -91 1959 -91
Q 1206 -91 779 398
Q 353 888 353 1747
Q 353 2609 779 3096
Q 1206 3584 1959 3584
z
" transform="scale(0.015625)"/>
       <path id="DejaVuSans-6e" d="M 3513 2113
L 3513 0
L 2938 0
L 2938 2094
Q 2938 2591 2744 2837
Q 2550 3084 2163 3084
Q 1697 3084 1428 2787
Q 1159 2491 1159 1978
L 1159 0
L 581 0
L 581 3500
L 1159 3500
L 1159 2956
Q 1366 3272 1645 3428
Q 1925 3584 2291 3584
Q 2894 3584 3203 3211
Q 3513 2838 3513 2113
z
" transform="scale(0.015625)"/>
       <path id="DejaVuSans-64" d="M 2906 2969
L 2906 4863
L 3481 4863
L 3481 0
L 2906 0
L 2906 525
Q 2725 213 2448 61
Q 2172 -91 1784 -91
Q 1150 -91 751 415
Q 353 922 353 1747
Q 353 2572 751 3078
Q 1150 3584 1784 3584
Q 2172 3584 2448 3432
Q 2725 3281 2906 2969
z
M 947 1747
Q 947 1113 1208 752
Q 1469 391 1925 391
Q 2381 391 2643 752
Q 2906 1113 2906 1747
Q 2906 2381 2643 2742
Q 2381 3103 1925 3103
Q 1469 3103 1208 2742
Q 947 2381 947 1747
z
" transform="scale(0.015625)"/>
       <path id="DejaVuSans-2c" d="M 750 794
L 1409 794
L 1409 256
L 897 -744
L 494 -744
L 750 256
L 750 794
z
" transform="scale(0.015625)"/>
       <path id="DejaVuSans-e9" d="M 3597 1894
L 3597 1613
L 953 1613
Q 991 1019 1311 708
Q 1631 397 2203 397
Q 2534 397 2845 478
Q 3156 559 3463 722
L 3463 178
Q 3153 47 2828 -22
Q 2503 -91 2169 -91
Q 1331 -91 842 396
Q 353 884 353 1716
Q 353 2575 817 3079
Q 1281 3584 2069 3584
Q 2775 3584 3186 3129
Q 3597 2675 3597 1894
z
M 3022 2063
Q 3016 2534 2758 2815
Q 2500 3097 2075 3097
Q 1594 3097 1305 2825
Q 1016 2553 972 2059
L 3022 2063
z
M 2469 5119
L 3091 5119
L 2072 3944
L 1594 3944
L 2469 5119
z
" transform="scale(0.015625)"/>
       <path id="DejaVuSans-68" d="M 3513 2113
L 3513 0
L 2938 0
L 2938 2094
Q 2938 2591 2744 2837
Q 2550 3084 2163 3084
Q 1697 3084 1428 2787
Q 1159 2491 1159 1978
L 1159 0
L 581 0
L 581 4863
L 1159 4863
L 1159 2956
Q 1366 3272 1645 3428
Q 1925 3584 2291 3584
Q 2894 3584 3203 3211
Q 3513 2838 3513 2113
z
" transform="scale(0.015625)"/>
       <path id="DejaVuSans-67" d="M 2906 1791
Q 2906 2416 2648 2759
Q 2391 3103 1925 3103
Q 1463 3103 1205 2759
Q 947 2416 947 1791
Q 947 1169 1205 825
Q 1463 481 1925 481
Q 2391 481 2648 825
Q 2906 1169 2906 1791
z
M 3481 434
Q 3481 -459 3084 -895
Q 2688 -1331 1869 -1331
Q 1566 -1331 1297 -1286
Q 1028 -1241 775 -1147
L 775 -588
Q 1028 -725 1275 -790
Q 1522 -856 1778 -856
Q 2344 -856 2625 -561
Q 2906 -266 2906 331
L 2906 616
Q 2728 306 2450 153
Q 2172 0 1784 0
Q 1141 0 747 490
Q 353 981 353 1791
Q 353 2603 747 3093
Q 1141 3584 1784 3584
Q 2172 3584 2450 3431
Q 2728 3278 2906 2969
L 2906 3500
L 3481 3500
L 3481 434
z
" transform="scale(0.015625)"/>
       <path id="DejaVuSans-69" d="M 603 3500
L 1178 3500
L 1178 0
L 603 0
L 603 3500
z
M 603 4863
L 1178 4863
L 1178 4134
L 603 4134
L 603 4863
z
" transform="scale(0.015625)"/>
       <path id="DejaVuSans-74" d="M 1172 4494
L 1172 3500
L 2356 3500
L 2356 3053
L 1172 3053
L 1172 1153
Q 1172 725 1289 603
Q 1406 481 1766 481
L 2356 481
L 2356 0
L 1766 0
Q 1100 0 847 248
Q 594 497 594 1153
L 594 3053
L 172 3053
L 172 3500
L 594 3500
L 594 4494
L 1172 4494
z
" transform="scale(0.015625)"/>
       <path id="DejaVuSans-71" d="M 947 1747
Q 947 1113 1208 752
Q 1469 391 1925 391
Q 2381 391 2643 752
Q 2906 1113 2906 1747
Q 2906 2381 2643 2742
Q 2381 3103 1925 3103
Q 1469 3103 1208 2742
Q 947 2381 947 1747
z
M 2906 525
Q 2725 213 2448 61
Q 2172 -91 1784 -91
Q 1150 -91 751 415
Q 353 922 353 1747
Q 353 2572 751 3078
Q 1150 3584 1784 3584
Q 2172 3584 2448 3432
Q 2725 3281 2906 2969
L 2906 3500
L 3481 3500
L 3481 -1331
L 2906 -1331
L 2906 525
z
" transform="scale(0.015625)"/>
       <path id="DejaVuSans-29" d="M 513 4856
L 1013 4856
Q 1481 4119 1714 3412
Q 1947 2706 1947 2009
Q 1947 1309 1714 600
Q 1481 -109 1013 -844
L 513 -844
Q 928 -128 1133 580
Q 1338 1288 1338 2009
Q 1338 2731 1133 3434
Q 928 4138 513 4856
z
" transform="scale(0.015625)"/>
      </defs>
      <use xlink:href="#DejaVuSans-54"/>
      <use xlink:href="#DejaVuSans-65" x="44.083984"/>
      <use xlink:href="#DejaVuSans-6d" x="105.607422"/>
      <use xlink:href="#DejaVuSans-70" x="203.019531"/>
      <use xlink:href="#DejaVuSans-73" x="266.496094"/>
      <use xlink:href="#DejaVuSans-20" x="318.595703"/>
      <use xlink:href="#DejaVuSans-6d" x="350.382812"/>
      <use xlink:href="#DejaVuSans-75" x="447.794922"/>
      <use xlink:href="#DejaVuSans-72" x="511.173828"/>
      <use xlink:href="#DejaVuSans-61" x="552.287109"/>
      <use xlink:href="#DejaVuSans-6c" x="613.566406"/>
      <use xlink:href="#DejaVuSans-20" x="641.349609"/>
      <use xlink:href="#DejaVuSans-28" x="673.136719"/>
      <use xlink:href="#DejaVuSans-73" x="712.150391"/>
      <use xlink:href="#DejaVuSans-65" x="764.25"/>
      <use xlink:href="#DejaVuSans-63" x="825.773438"/>
      <use xlink:href="#DejaVuSans-6f" x="880.753906"/>
      <use xlink:href="#DejaVuSans-6e" x="941.935547"/>
      <use xlink:href="#DejaVuSans-64" x="1005.314453"/>
      <use xlink:href="#DejaVuSans-65" x="1068.791016"/>
      <use xlink:href="#DejaVuSans-73" x="1130.314453"/>
      <use xlink:href="#DejaVuSans-2c" x="1182.414062"/>
      <use xlink:href="#DejaVuSans-20" x="1214.201172"/>
      <use xlink:href="#DejaVuSans-e9" x="1245.988281"/>
      <use xlink:href="#DejaVuSans-63" x="1307.511719"/>
      <use xlink:href="#DejaVuSans-68" x="1362.492188"/>
      <use xlink:href="#DejaVuSans-65" x="1425.871094"/>
      <use xlink:href="#DejaVuSans-6c" x="1487.394531"/>
      <use xlink:href="#DejaVuSans-6c" x="1515.177734"/>
      <use xlink:href="#DejaVuSans-65" x="1542.960938"/>
      <use xlink:href="#DejaVuSans-20" x="1604.484375"/>
      <use xlink:href="#DejaVuSans-6c" x="1636.271484"/>
      <use xlink:href="#DejaVuSans-6f" x="1664.054688"/>
      <use xlink:href="#DejaVuSans-67" x="1725.236328"/>
      <use xlink:href="#DejaVuSans-61" x="1788.712891"/>
      <use xlink:href="#DejaVuSans-72" x="1849.992188"/>
      <use xlink:href="#DejaVuSans-69" x="1891.105469"/>
      <use xlink:href="#DejaVuSans-74" x="1918.888672"/>
      <use xlink:href="#DejaVuSans-68" x="1958.097656"/>
      <use xlink:href="#DejaVuSans-6d" x="2021.476562"/>
      <use xlink:href="#DejaVuSans-69" x="2118.888672"/>
      <use xlink:href="#DejaVuSans-71" x="2146.671875"/>
      <use xlink:href="#DejaVuSans-75" x="2210.148438"/>
      <use xlink:href="#DejaVuSans-65" x="2273.527344"/>
      <use xlink:href="#DejaVuSans-29" x="2335.050781"/>
     </g>
    </g>
   </g>
   <g id="matplotlib.axis_2">
    <g id="ytick_1">
     <g id="line2d_67">
      <defs>
       <path id="mecfdfaefba" d="M 0 0
L -3.5 0
" style="stroke: #000000; stroke-width: 0.8"/>
      </defs>
      <g>
       <use xlink:href="#mecfdfaefba" x="74.940156" y="202.026319" style="stroke: #000000; stroke-width: 0.8"/>
      </g>
     </g>
     <g id="text_5">
      <!-- Quadratique -->
      <g transform="translate(11.723906 205.445615) scale(0.09 -0.09)">
       <defs>
        <path id="DejaVuSans-51" d="M 2522 4238
Q 1834 4238 1429 3725
Q 1025 3213 1025 2328
Q 1025 1447 1429 934
Q 1834 422 2522 422
Q 3209 422 3611 934
Q 4013 1447 4013 2328
Q 4013 3213 3611 3725
Q 3209 4238 2522 4238
z
M 3406 84
L 4238 -825
L 3475 -825
L 2784 -78
Q 2681 -84 2626 -87
Q 2572 -91 2522 -91
Q 1538 -91 948 567
Q 359 1225 359 2328
Q 359 3434 948 4092
Q 1538 4750 2522 4750
Q 3503 4750 4090 4092
Q 4678 3434 4678 2328
Q 4678 1516 4351 937
Q 4025 359 3406 84
z
" transform="scale(0.015625)"/>
       </defs>
       <use xlink:href="#DejaVuSans-51"/>
       <use xlink:href="#DejaVuSans-75" x="78.710938"/>
       <use xlink:href="#DejaVuSans-61" x="142.089844"/>
       <use xlink:href="#DejaVuSans-64" x="203.369141"/>
       <use xlink:href="#DejaVuSans-72" x="266.845703"/>
       <use xlink:href="#DejaVuSans-61" x="307.958984"/>
       <use xlink:href="#DejaVuSans-74" x="369.238281"/>
       <use xlink:href="#DejaVuSans-69" x="408.447266"/>
       <use xlink:href="#DejaVuSans-71" x="436.230469"/>
       <use xlink:href="#DejaVuSans-75" x="499.707031"/>
       <use xlink:href="#DejaVuSans-65" x="563.085938"/>
      </g>
     </g>
    </g>
    <g id="ytick_2">
     <g id="line2d_68">
      <g>
       <use xlink:href="#mecfdfaefba" x="74.940156" y="82.805244" style="stroke: #000000; stroke-width: 0.8"/>
      </g>
     </g>
     <g id="text_6">
      <!-- Paramétrique -->
      <g transform="translate(7.2 86.404541) scale(0.09 -0.09)">
       <defs>
        <path id="DejaVuSans-50" d="M 1259 4147
L 1259 2394
L 2053 2394
Q 2494 2394 2734 2622
Q 2975 2850 2975 3272
Q 2975 3691 2734 3919
Q 2494 4147 2053 4147
L 1259 4147
z
M 628 4666
L 2053 4666
Q 2838 4666 3239 4311
Q 3641 3956 3641 3272
Q 3641 2581 3239 2228
Q 2838 1875 2053 1875
L 1259 1875
L 1259 0
L 628 0
L 628 4666
z
" transform="scale(0.015625)"/>
       </defs>
       <use xlink:href="#DejaVuSans-50"/>
       <use xlink:href="#DejaVuSans-61" x="55.802734"/>
       <use xlink:href="#DejaVuSans-72" x="117.082031"/>
       <use xlink:href="#DejaVuSans-61" x="158.195312"/>
       <use xlink:href="#DejaVuSans-6d" x="219.474609"/>
       <use xlink:href="#DejaVuSans-e9" x="316.886719"/>
       <use xlink:href="#DejaVuSans-74" x="378.410156"/>
       <use xlink:href="#DejaVuSans-72" x="417.619141"/>
       <use xlink:href="#DejaVuSans-69" x="458.732422"/>
       <use xlink:href="#DejaVuSans-71" x="486.515625"/>
       <use xlink:href="#DejaVuSans-75" x="549.992188"/>
       <use xlink:href="#DejaVuSans-65" x="613.371094"/>
      </g>
     </g>
    </g>
   </g>
   <g id="patch_3">
    <path d="M -79247.930957 236.60043
L 338.175879 236.60043
L 338.175879 167.452207
L -79247.930957 167.452207
z
" clip-path="url(#p7dedb4eebf)" style="fill: #7a5195"/>
   </g>
   <g id="patch_4">
    <path d="M -79247.930957 117.379356
L 87.475191 117.379356
L 87.475191 48.231132
L -79247.930957 48.231132
z
" clip-path="url(#p7dedb4eebf)" style="fill: #2f9eaa"/>
   </g>
   <g id="patch_5">
    <path d="M 74.940156 246.018895
L 74.940156 38.812667
" style="fill: none; stroke: #000000; stroke-width: 0.8; stroke-linejoin: miter; stroke-linecap: square"/>
   </g>
   <g id="patch_6">
    <path d="M 74.940156 246.018895
L 350.710913 246.018895
" style="fill: none; stroke: #000000; stroke-width: 0.8; stroke-linejoin: miter; stroke-linecap: square"/>
   </g>
   <g id="text_7">
    <!-- 607,7 s -->
    <g transform="translate(342.082076 204.509756) scale(0.09 -0.09)">
     <defs>
      <path id="DejaVuSans-Bold-36" d="M 2316 2303
Q 2000 2303 1842 2098
Q 1684 1894 1684 1484
Q 1684 1075 1842 870
Q 2000 666 2316 666
Q 2634 666 2792 870
Q 2950 1075 2950 1484
Q 2950 1894 2792 2098
Q 2634 2303 2316 2303
z
M 3803 4544
L 3803 3681
Q 3506 3822 3243 3889
Q 2981 3956 2731 3956
Q 2194 3956 1894 3657
Q 1594 3359 1544 2772
Q 1750 2925 1990 3001
Q 2231 3078 2516 3078
Q 3231 3078 3670 2659
Q 4109 2241 4109 1563
Q 4109 813 3618 361
Q 3128 -91 2303 -91
Q 1394 -91 895 523
Q 397 1138 397 2266
Q 397 3422 980 4083
Q 1563 4744 2578 4744
Q 2900 4744 3203 4694
Q 3506 4644 3803 4544
z
" transform="scale(0.015625)"/>
      <path id="DejaVuSans-Bold-30" d="M 2944 2338
Q 2944 3213 2780 3570
Q 2616 3928 2228 3928
Q 1841 3928 1675 3570
Q 1509 3213 1509 2338
Q 1509 1453 1675 1090
Q 1841 728 2228 728
Q 2613 728 2778 1090
Q 2944 1453 2944 2338
z
M 4147 2328
Q 4147 1169 3647 539
Q 3147 -91 2228 -91
Q 1306 -91 806 539
Q 306 1169 306 2328
Q 306 3491 806 4120
Q 1306 4750 2228 4750
Q 3147 4750 3647 4120
Q 4147 3491 4147 2328
z
" transform="scale(0.015625)"/>
      <path id="DejaVuSans-Bold-37" d="M 428 4666
L 3944 4666
L 3944 3988
L 2125 0
L 953 0
L 2675 3781
L 428 3781
L 428 4666
z
" transform="scale(0.015625)"/>
      <path id="DejaVuSans-Bold-2c" d="M 653 1209
L 1778 1209
L 1778 256
L 1006 -909
L 341 -909
L 653 256
L 653 1209
z
" transform="scale(0.015625)"/>
      <path id="DejaVuSans-Bold-20" transform="scale(0.015625)"/>
      <path id="DejaVuSans-Bold-73" d="M 3272 3391
L 3272 2541
Q 2913 2691 2578 2766
Q 2244 2841 1947 2841
Q 1628 2841 1473 2761
Q 1319 2681 1319 2516
Q 1319 2381 1436 2309
Q 1553 2238 1856 2203
L 2053 2175
Q 2913 2066 3209 1816
Q 3506 1566 3506 1031
Q 3506 472 3093 190
Q 2681 -91 1863 -91
Q 1516 -91 1145 -36
Q 775 19 384 128
L 384 978
Q 719 816 1070 734
Q 1422 653 1784 653
Q 2113 653 2278 743
Q 2444 834 2444 1013
Q 2444 1163 2330 1236
Q 2216 1309 1875 1350
L 1678 1375
Q 931 1469 631 1722
Q 331 1975 331 2491
Q 331 3047 712 3315
Q 1094 3584 1881 3584
Q 2191 3584 2531 3537
Q 2872 3491 3272 3391
z
" transform="scale(0.015625)"/>
     </defs>
     <use xlink:href="#DejaVuSans-Bold-36"/>
     <use xlink:href="#DejaVuSans-Bold-30" x="69.580078"/>
     <use xlink:href="#DejaVuSans-Bold-37" x="139.160156"/>
     <use xlink:href="#DejaVuSans-Bold-2c" x="208.740234"/>
     <use xlink:href="#DejaVuSans-Bold-37" x="246.728516"/>
     <use xlink:href="#DejaVuSans-Bold-20" x="316.308594"/>
     <use xlink:href="#DejaVuSans-Bold-73" x="351.123047"/>
    </g>
   </g>
   <g id="text_8">
    <!-- 0,422 s -->
    <g transform="translate(91.381388 85.288681) scale(0.09 -0.09)">
     <defs>
      <path id="DejaVuSans-Bold-34" d="M 2356 3675
L 1038 1722
L 2356 1722
L 2356 3675
z
M 2156 4666
L 3494 4666
L 3494 1722
L 4159 1722
L 4159 850
L 3494 850
L 3494 0
L 2356 0
L 2356 850
L 288 850
L 288 1881
L 2156 4666
z
" transform="scale(0.015625)"/>
      <path id="DejaVuSans-Bold-32" d="M 1844 884
L 3897 884
L 3897 0
L 506 0
L 506 884
L 2209 2388
Q 2438 2594 2547 2791
Q 2656 2988 2656 3200
Q 2656 3528 2436 3728
Q 2216 3928 1850 3928
Q 1569 3928 1234 3808
Q 900 3688 519 3450
L 519 4475
Q 925 4609 1322 4679
Q 1719 4750 2100 4750
Q 2938 4750 3402 4381
Q 3866 4013 3866 3353
Q 3866 2972 3669 2642
Q 3472 2313 2841 1759
L 1844 884
z
" transform="scale(0.015625)"/>
     </defs>
     <use xlink:href="#DejaVuSans-Bold-30"/>
     <use xlink:href="#DejaVuSans-Bold-2c" x="69.580078"/>
     <use xlink:href="#DejaVuSans-Bold-34" x="107.568359"/>
     <use xlink:href="#DejaVuSans-Bold-32" x="177.148438"/>
     <use xlink:href="#DejaVuSans-Bold-32" x="246.728516"/>
     <use xlink:href="#DejaVuSans-Bold-20" x="316.308594"/>
     <use xlink:href="#DejaVuSans-Bold-73" x="351.123047"/>
    </g>
   </g>
   <g id="text_9">
    <!-- Même catalogue : 122 640 progressions -->
    <g transform="translate(83.213279 222.964521) scale(0.08 -0.08)">
     <defs>
      <path id="DejaVuSans-4d" d="M 628 4666
L 1569 4666
L 2759 1491
L 3956 4666
L 4897 4666
L 4897 0
L 4281 0
L 4281 4097
L 3078 897
L 2444 897
L 1241 4097
L 1241 0
L 628 0
L 628 4666
z
" transform="scale(0.015625)"/>
      <path id="DejaVuSans-ea" d="M 3597 1894
L 3597 1613
L 953 1613
Q 991 1019 1311 708
Q 1631 397 2203 397
Q 2534 397 2845 478
Q 3156 559 3463 722
L 3463 178
Q 3153 47 2828 -22
Q 2503 -91 2169 -91
Q 1331 -91 842 396
Q 353 884 353 1716
Q 353 2575 817 3079
Q 1281 3584 2069 3584
Q 2775 3584 3186 3129
Q 3597 2675 3597 1894
z
M 3022 2063
Q 3016 2534 2758 2815
Q 2500 3097 2075 3097
Q 1594 3097 1305 2825
Q 1016 2553 972 2059
L 3022 2063
z
M 1803 5119
L 2266 5119
L 3031 3944
L 2597 3944
L 2034 4709
L 1472 3944
L 1038 3944
L 1803 5119
z
" transform="scale(0.015625)"/>
      <path id="DejaVuSans-3a" d="M 750 794
L 1409 794
L 1409 0
L 750 0
L 750 794
z
M 750 3309
L 1409 3309
L 1409 2516
L 750 2516
L 750 3309
z
" transform="scale(0.015625)"/>
      <path id="DejaVuSans-36" d="M 2113 2584
Q 1688 2584 1439 2293
Q 1191 2003 1191 1497
Q 1191 994 1439 701
Q 1688 409 2113 409
Q 2538 409 2786 701
Q 3034 994 3034 1497
Q 3034 2003 2786 2293
Q 2538 2584 2113 2584
z
M 3366 4563
L 3366 3988
Q 3128 4100 2886 4159
Q 2644 4219 2406 4219
Q 1781 4219 1451 3797
Q 1122 3375 1075 2522
Q 1259 2794 1537 2939
Q 1816 3084 2150 3084
Q 2853 3084 3261 2657
Q 3669 2231 3669 1497
Q 3669 778 3244 343
Q 2819 -91 2113 -91
Q 1303 -91 875 529
Q 447 1150 447 2328
Q 447 3434 972 4092
Q 1497 4750 2381 4750
Q 2619 4750 2861 4703
Q 3103 4656 3366 4563
z
" transform="scale(0.015625)"/>
      <path id="DejaVuSans-34" d="M 2419 4116
L 825 1625
L 2419 1625
L 2419 4116
z
M 2253 4666
L 3047 4666
L 3047 1625
L 3713 1625
L 3713 1100
L 3047 1100
L 3047 0
L 2419 0
L 2419 1100
L 313 1100
L 313 1709
L 2253 4666
z
" transform="scale(0.015625)"/>
     </defs>
     <use xlink:href="#DejaVuSans-4d"/>
     <use xlink:href="#DejaVuSans-ea" x="86.279297"/>
     <use xlink:href="#DejaVuSans-6d" x="147.802734"/>
     <use xlink:href="#DejaVuSans-65" x="245.214844"/>
     <use xlink:href="#DejaVuSans-20" x="306.738281"/>
     <use xlink:href="#DejaVuSans-63" x="338.525391"/>
     <use xlink:href="#DejaVuSans-61" x="393.505859"/>
     <use xlink:href="#DejaVuSans-74" x="454.785156"/>
     <use xlink:href="#DejaVuSans-61" x="493.994141"/>
     <use xlink:href="#DejaVuSans-6c" x="555.273438"/>
     <use xlink:href="#DejaVuSans-6f" x="583.056641"/>
     <use xlink:href="#DejaVuSans-67" x="644.238281"/>
     <use xlink:href="#DejaVuSans-75" x="707.714844"/>
     <use xlink:href="#DejaVuSans-65" x="771.09375"/>
     <use xlink:href="#DejaVuSans-20" x="832.617188"/>
     <use xlink:href="#DejaVuSans-3a" x="864.404297"/>
     <use xlink:href="#DejaVuSans-20" x="898.095703"/>
     <use xlink:href="#DejaVuSans-31" x="929.882812"/>
     <use xlink:href="#DejaVuSans-32" x="993.505859"/>
     <use xlink:href="#DejaVuSans-32" x="1057.128906"/>
     <use xlink:href="#DejaVuSans-20" x="1120.751953"/>
     <use xlink:href="#DejaVuSans-36" x="1152.539062"/>
     <use xlink:href="#DejaVuSans-34" x="1216.162109"/>
     <use xlink:href="#DejaVuSans-30" x="1279.785156"/>
     <use xlink:href="#DejaVuSans-20" x="1343.408203"/>
     <use xlink:href="#DejaVuSans-70" x="1375.195312"/>
     <use xlink:href="#DejaVuSans-72" x="1438.671875"/>
     <use xlink:href="#DejaVuSans-6f" x="1477.535156"/>
     <use xlink:href="#DejaVuSans-67" x="1538.716797"/>
     <use xlink:href="#DejaVuSans-72" x="1602.193359"/>
     <use xlink:href="#DejaVuSans-65" x="1641.056641"/>
     <use xlink:href="#DejaVuSans-73" x="1702.580078"/>
     <use xlink:href="#DejaVuSans-73" x="1754.679688"/>
     <use xlink:href="#DejaVuSans-69" x="1806.779297"/>
     <use xlink:href="#DejaVuSans-6f" x="1834.5625"/>
     <use xlink:href="#DejaVuSans-6e" x="1895.744141"/>
     <use xlink:href="#DejaVuSans-73" x="1959.123047"/>
    </g>
    <!-- Facteur mesuré : 1441,5× -->
    <g transform="translate(83.213279 231.922771) scale(0.08 -0.08)">
     <defs>
      <path id="DejaVuSans-46" d="M 628 4666
L 3309 4666
L 3309 4134
L 1259 4134
L 1259 2759
L 3109 2759
L 3109 2228
L 1259 2228
L 1259 0
L 628 0
L 628 4666
z
" transform="scale(0.015625)"/>
      <path id="DejaVuSans-35" d="M 691 4666
L 3169 4666
L 3169 4134
L 1269 4134
L 1269 2991
Q 1406 3038 1543 3061
Q 1681 3084 1819 3084
Q 2600 3084 3056 2656
Q 3513 2228 3513 1497
Q 3513 744 3044 326
Q 2575 -91 1722 -91
Q 1428 -91 1123 -41
Q 819 9 494 109
L 494 744
Q 775 591 1075 516
Q 1375 441 1709 441
Q 2250 441 2565 725
Q 2881 1009 2881 1497
Q 2881 1984 2565 2268
Q 2250 2553 1709 2553
Q 1456 2553 1204 2497
Q 953 2441 691 2322
L 691 4666
z
" transform="scale(0.015625)"/>
      <path id="DejaVuSans-d7" d="M 4488 3438
L 3059 2003
L 4488 575
L 4116 197
L 2681 1631
L 1247 197
L 878 575
L 2303 2003
L 878 3438
L 1247 3816
L 2681 2381
L 4116 3816
L 4488 3438
z
" transform="scale(0.015625)"/>
     </defs>
     <use xlink:href="#DejaVuSans-46"/>
     <use xlink:href="#DejaVuSans-61" x="48.394531"/>
     <use xlink:href="#DejaVuSans-63" x="109.673828"/>
     <use xlink:href="#DejaVuSans-74" x="164.654297"/>
     <use xlink:href="#DejaVuSans-65" x="203.863281"/>
     <use xlink:href="#DejaVuSans-75" x="265.386719"/>
     <use xlink:href="#DejaVuSans-72" x="328.765625"/>
     <use xlink:href="#DejaVuSans-20" x="369.878906"/>
     <use xlink:href="#DejaVuSans-6d" x="401.666016"/>
     <use xlink:href="#DejaVuSans-65" x="499.078125"/>
     <use xlink:href="#DejaVuSans-73" x="560.601562"/>
     <use xlink:href="#DejaVuSans-75" x="612.701172"/>
     <use xlink:href="#DejaVuSans-72" x="676.080078"/>
     <use xlink:href="#DejaVuSans-e9" x="714.943359"/>
     <use xlink:href="#DejaVuSans-20" x="776.466797"/>
     <use xlink:href="#DejaVuSans-3a" x="808.253906"/>
     <use xlink:href="#DejaVuSans-20" x="841.945312"/>
     <use xlink:href="#DejaVuSans-31" x="873.732422"/>
     <use xlink:href="#DejaVuSans-34" x="937.355469"/>
     <use xlink:href="#DejaVuSans-34" x="1000.978516"/>
     <use xlink:href="#DejaVuSans-31" x="1064.601562"/>
     <use xlink:href="#DejaVuSans-2c" x="1128.224609"/>
     <use xlink:href="#DejaVuSans-35" x="1160.011719"/>
     <use xlink:href="#DejaVuSans-d7" x="1223.634766"/>
    </g>
   </g>
   <g id="text_10">
    <!-- A. Génération du catalogue -->
    <g transform="translate(144.195066 32.812667) scale(0.1 -0.1)">
     <defs>
      <path id="DejaVuSans-41" d="M 2188 4044
L 1331 1722
L 3047 1722
L 2188 4044
z
M 1831 4666
L 2547 4666
L 4325 0
L 3669 0
L 3244 1197
L 1141 1197
L 716 0
L 50 0
L 1831 4666
z
" transform="scale(0.015625)"/>
      <path id="DejaVuSans-2e" d="M 684 794
L 1344 794
L 1344 0
L 684 0
L 684 794
z
" transform="scale(0.015625)"/>
      <path id="DejaVuSans-47" d="M 3809 666
L 3809 1919
L 2778 1919
L 2778 2438
L 4434 2438
L 4434 434
Q 4069 175 3628 42
Q 3188 -91 2688 -91
Q 1594 -91 976 548
Q 359 1188 359 2328
Q 359 3472 976 4111
Q 1594 4750 2688 4750
Q 3144 4750 3555 4637
Q 3966 4525 4313 4306
L 4313 3634
Q 3963 3931 3569 4081
Q 3175 4231 2741 4231
Q 1884 4231 1454 3753
Q 1025 3275 1025 2328
Q 1025 1384 1454 906
Q 1884 428 2741 428
Q 3075 428 3337 486
Q 3600 544 3809 666
z
" transform="scale(0.015625)"/>
     </defs>
     <use xlink:href="#DejaVuSans-41"/>
     <use xlink:href="#DejaVuSans-2e" x="66.658203"/>
     <use xlink:href="#DejaVuSans-20" x="98.445312"/>
     <use xlink:href="#DejaVuSans-47" x="130.232422"/>
     <use xlink:href="#DejaVuSans-e9" x="207.722656"/>
     <use xlink:href="#DejaVuSans-6e" x="269.246094"/>
     <use xlink:href="#DejaVuSans-e9" x="332.625"/>
     <use xlink:href="#DejaVuSans-72" x="394.148438"/>
     <use xlink:href="#DejaVuSans-61" x="435.261719"/>
     <use xlink:href="#DejaVuSans-74" x="496.541016"/>
     <use xlink:href="#DejaVuSans-69" x="535.75"/>
     <use xlink:href="#DejaVuSans-6f" x="563.533203"/>
     <use xlink:href="#DejaVuSans-6e" x="624.714844"/>
     <use xlink:href="#DejaVuSans-20" x="688.09375"/>
     <use xlink:href="#DejaVuSans-64" x="719.880859"/>
     <use xlink:href="#DejaVuSans-75" x="783.357422"/>
     <use xlink:href="#DejaVuSans-20" x="846.736328"/>
     <use xlink:href="#DejaVuSans-63" x="878.523438"/>
     <use xlink:href="#DejaVuSans-61" x="933.503906"/>
     <use xlink:href="#DejaVuSans-74" x="994.783203"/>
     <use xlink:href="#DejaVuSans-61" x="1033.992188"/>
     <use xlink:href="#DejaVuSans-6c" x="1095.271484"/>
     <use xlink:href="#DejaVuSans-6f" x="1123.054688"/>
     <use xlink:href="#DejaVuSans-67" x="1184.236328"/>
     <use xlink:href="#DejaVuSans-75" x="1247.712891"/>
     <use xlink:href="#DejaVuSans-65" x="1311.091797"/>
    </g>
   </g>
  </g>
  <g id="axes_2">
   <g id="patch_7">
    <path d="M 429.542995 246.018895
L 705.313752 246.018895
L 705.313752 38.812667
L 429.542995 38.812667
z
" style="fill: #ffffff"/>
   </g>
   <g id="matplotlib.axis_3">
    <g id="xtick_34">
     <g id="line2d_69">
      <path d="M 447.535205 246.018895
L 447.535205 38.812667
" clip-path="url(#p6897180048)" style="fill: none; stroke: #d8d8d8; stroke-width: 0.8; stroke-linecap: square"/>
     </g>
     <g id="line2d_70">
      <g>
       <use xlink:href="#m1dcfbab889" x="447.535205" y="246.018895" style="stroke: #000000; stroke-width: 0.8"/>
      </g>
     </g>
     <g id="text_11">
      <!-- $\mathdefault{10^{-1}}$ -->
      <g transform="translate(436.960205 259.857489) scale(0.09 -0.09)">
       <defs>
        <path id="DejaVuSans-2212" d="M 678 2272
L 4684 2272
L 4684 1741
L 678 1741
L 678 2272
z
" transform="scale(0.015625)"/>
       </defs>
       <use xlink:href="#DejaVuSans-31" transform="translate(0 0.684375)"/>
       <use xlink:href="#DejaVuSans-30" transform="translate(63.623047 0.684375)"/>
       <use xlink:href="#DejaVuSans-2212" transform="translate(128.203125 38.965625) scale(0.7)"/>
       <use xlink:href="#DejaVuSans-31" transform="translate(186.855469 38.965625) scale(0.7)"/>
      </g>
     </g>
    </g>
    <g id="xtick_35">
     <g id="line2d_71">
      <path d="M 577.344432 246.018895
L 577.344432 38.812667
" clip-path="url(#p6897180048)" style="fill: none; stroke: #d8d8d8; stroke-width: 0.8; stroke-linecap: square"/>
     </g>
     <g id="line2d_72">
      <g>
       <use xlink:href="#m1dcfbab889" x="577.344432" y="246.018895" style="stroke: #000000; stroke-width: 0.8"/>
      </g>
     </g>
     <g id="text_12">
      <!-- $\mathdefault{10^{0}}$ -->
      <g transform="translate(569.424432 259.857489) scale(0.09 -0.09)">
       <use xlink:href="#DejaVuSans-31" transform="translate(0 0.765625)"/>
       <use xlink:href="#DejaVuSans-30" transform="translate(63.623047 0.765625)"/>
       <use xlink:href="#DejaVuSans-30" transform="translate(128.203125 39.046875) scale(0.7)"/>
      </g>
     </g>
    </g>
    <g id="xtick_36">
     <g id="line2d_73">
      <path d="M 434.955391 246.018895
L 434.955391 38.812667
" clip-path="url(#p6897180048)" style="fill: none; stroke: #eeeeee; stroke-width: 0.5; stroke-linecap: square"/>
     </g>
     <g id="line2d_74">
      <g>
       <use xlink:href="#ma1b5a9a7c3" x="434.955391" y="246.018895" style="stroke: #000000; stroke-width: 0.6"/>
      </g>
     </g>
    </g>
    <g id="xtick_37">
     <g id="line2d_75">
      <path d="M 441.59546 246.018895
L 441.59546 38.812667
" clip-path="url(#p6897180048)" style="fill: none; stroke: #eeeeee; stroke-width: 0.5; stroke-linecap: square"/>
     </g>
     <g id="line2d_76">
      <g>
       <use xlink:href="#ma1b5a9a7c3" x="441.59546" y="246.018895" style="stroke: #000000; stroke-width: 0.6"/>
      </g>
     </g>
    </g>
    <g id="xtick_38">
     <g id="line2d_77">
      <path d="M 486.611676 246.018895
L 486.611676 38.812667
" clip-path="url(#p6897180048)" style="fill: none; stroke: #eeeeee; stroke-width: 0.5; stroke-linecap: square"/>
     </g>
     <g id="line2d_78">
      <g>
       <use xlink:href="#ma1b5a9a7c3" x="486.611676" y="246.018895" style="stroke: #000000; stroke-width: 0.6"/>
      </g>
     </g>
    </g>
    <g id="xtick_39">
     <g id="line2d_79">
      <path d="M 509.469946 246.018895
L 509.469946 38.812667
" clip-path="url(#p6897180048)" style="fill: none; stroke: #eeeeee; stroke-width: 0.5; stroke-linecap: square"/>
     </g>
     <g id="line2d_80">
      <g>
       <use xlink:href="#ma1b5a9a7c3" x="509.469946" y="246.018895" style="stroke: #000000; stroke-width: 0.6"/>
      </g>
     </g>
    </g>
    <g id="xtick_40">
     <g id="line2d_81">
      <path d="M 525.688147 246.018895
L 525.688147 38.812667
" clip-path="url(#p6897180048)" style="fill: none; stroke: #eeeeee; stroke-width: 0.5; stroke-linecap: square"/>
     </g>
     <g id="line2d_82">
      <g>
       <use xlink:href="#ma1b5a9a7c3" x="525.688147" y="246.018895" style="stroke: #000000; stroke-width: 0.6"/>
      </g>
     </g>
    </g>
    <g id="xtick_41">
     <g id="line2d_83">
      <path d="M 538.267961 246.018895
L 538.267961 38.812667
" clip-path="url(#p6897180048)" style="fill: none; stroke: #eeeeee; stroke-width: 0.5; stroke-linecap: square"/>
     </g>
     <g id="line2d_84">
      <g>
       <use xlink:href="#ma1b5a9a7c3" x="538.267961" y="246.018895" style="stroke: #000000; stroke-width: 0.6"/>
      </g>
     </g>
    </g>
    <g id="xtick_42">
     <g id="line2d_85">
      <path d="M 548.546417 246.018895
L 548.546417 38.812667
" clip-path="url(#p6897180048)" style="fill: none; stroke: #eeeeee; stroke-width: 0.5; stroke-linecap: square"/>
     </g>
     <g id="line2d_86">
      <g>
       <use xlink:href="#ma1b5a9a7c3" x="548.546417" y="246.018895" style="stroke: #000000; stroke-width: 0.6"/>
      </g>
     </g>
    </g>
    <g id="xtick_43">
     <g id="line2d_87">
      <path d="M 557.236728 246.018895
L 557.236728 38.812667
" clip-path="url(#p6897180048)" style="fill: none; stroke: #eeeeee; stroke-width: 0.5; stroke-linecap: square"/>
     </g>
     <g id="line2d_88">
      <g>
       <use xlink:href="#ma1b5a9a7c3" x="557.236728" y="246.018895" style="stroke: #000000; stroke-width: 0.6"/>
      </g>
     </g>
    </g>
    <g id="xtick_44">
     <g id="line2d_89">
      <path d="M 564.764618 246.018895
L 564.764618 38.812667
" clip-path="url(#p6897180048)" style="fill: none; stroke: #eeeeee; stroke-width: 0.5; stroke-linecap: square"/>
     </g>
     <g id="line2d_90">
      <g>
       <use xlink:href="#ma1b5a9a7c3" x="564.764618" y="246.018895" style="stroke: #000000; stroke-width: 0.6"/>
      </g>
     </g>
    </g>
    <g id="xtick_45">
     <g id="line2d_91">
      <path d="M 571.404687 246.018895
L 571.404687 38.812667
" clip-path="url(#p6897180048)" style="fill: none; stroke: #eeeeee; stroke-width: 0.5; stroke-linecap: square"/>
     </g>
     <g id="line2d_92">
      <g>
       <use xlink:href="#ma1b5a9a7c3" x="571.404687" y="246.018895" style="stroke: #000000; stroke-width: 0.6"/>
      </g>
     </g>
    </g>
    <g id="xtick_46">
     <g id="line2d_93">
      <path d="M 616.420903 246.018895
L 616.420903 38.812667
" clip-path="url(#p6897180048)" style="fill: none; stroke: #eeeeee; stroke-width: 0.5; stroke-linecap: square"/>
     </g>
     <g id="line2d_94">
      <g>
       <use xlink:href="#ma1b5a9a7c3" x="616.420903" y="246.018895" style="stroke: #000000; stroke-width: 0.6"/>
      </g>
     </g>
    </g>
    <g id="xtick_47">
     <g id="line2d_95">
      <path d="M 639.279173 246.018895
L 639.279173 38.812667
" clip-path="url(#p6897180048)" style="fill: none; stroke: #eeeeee; stroke-width: 0.5; stroke-linecap: square"/>
     </g>
     <g id="line2d_96">
      <g>
       <use xlink:href="#ma1b5a9a7c3" x="639.279173" y="246.018895" style="stroke: #000000; stroke-width: 0.6"/>
      </g>
     </g>
    </g>
    <g id="xtick_48">
     <g id="line2d_97">
      <path d="M 655.497374 246.018895
L 655.497374 38.812667
" clip-path="url(#p6897180048)" style="fill: none; stroke: #eeeeee; stroke-width: 0.5; stroke-linecap: square"/>
     </g>
     <g id="line2d_98">
      <g>
       <use xlink:href="#ma1b5a9a7c3" x="655.497374" y="246.018895" style="stroke: #000000; stroke-width: 0.6"/>
      </g>
     </g>
    </g>
    <g id="xtick_49">
     <g id="line2d_99">
      <path d="M 668.077188 246.018895
L 668.077188 38.812667
" clip-path="url(#p6897180048)" style="fill: none; stroke: #eeeeee; stroke-width: 0.5; stroke-linecap: square"/>
     </g>
     <g id="line2d_100">
      <g>
       <use xlink:href="#ma1b5a9a7c3" x="668.077188" y="246.018895" style="stroke: #000000; stroke-width: 0.6"/>
      </g>
     </g>
    </g>
    <g id="xtick_50">
     <g id="line2d_101">
      <path d="M 678.355645 246.018895
L 678.355645 38.812667
" clip-path="url(#p6897180048)" style="fill: none; stroke: #eeeeee; stroke-width: 0.5; stroke-linecap: square"/>
     </g>
     <g id="line2d_102">
      <g>
       <use xlink:href="#ma1b5a9a7c3" x="678.355645" y="246.018895" style="stroke: #000000; stroke-width: 0.6"/>
      </g>
     </g>
    </g>
    <g id="xtick_51">
     <g id="line2d_103">
      <path d="M 687.045956 246.018895
L 687.045956 38.812667
" clip-path="url(#p6897180048)" style="fill: none; stroke: #eeeeee; stroke-width: 0.5; stroke-linecap: square"/>
     </g>
     <g id="line2d_104">
      <g>
       <use xlink:href="#ma1b5a9a7c3" x="687.045956" y="246.018895" style="stroke: #000000; stroke-width: 0.6"/>
      </g>
     </g>
    </g>
    <g id="xtick_52">
     <g id="line2d_105">
      <path d="M 694.573845 246.018895
L 694.573845 38.812667
" clip-path="url(#p6897180048)" style="fill: none; stroke: #eeeeee; stroke-width: 0.5; stroke-linecap: square"/>
     </g>
     <g id="line2d_106">
      <g>
       <use xlink:href="#ma1b5a9a7c3" x="694.573845" y="246.018895" style="stroke: #000000; stroke-width: 0.6"/>
      </g>
     </g>
    </g>
    <g id="xtick_53">
     <g id="line2d_107">
      <path d="M 701.213915 246.018895
L 701.213915 38.812667
" clip-path="url(#p6897180048)" style="fill: none; stroke: #eeeeee; stroke-width: 0.5; stroke-linecap: square"/>
     </g>
     <g id="line2d_108">
      <g>
       <use xlink:href="#ma1b5a9a7c3" x="701.213915" y="246.018895" style="stroke: #000000; stroke-width: 0.6"/>
      </g>
     </g>
    </g>
    <g id="text_13">
     <!-- Médiane de 5 répétitions (secondes, échelle logarithmique) -->
     <g transform="translate(433.41767 272.927801) scale(0.09 -0.09)">
      <use xlink:href="#DejaVuSans-4d"/>
      <use xlink:href="#DejaVuSans-e9" x="86.279297"/>
      <use xlink:href="#DejaVuSans-64" x="147.802734"/>
      <use xlink:href="#DejaVuSans-69" x="211.279297"/>
      <use xlink:href="#DejaVuSans-61" x="239.0625"/>
      <use xlink:href="#DejaVuSans-6e" x="300.341797"/>
      <use xlink:href="#DejaVuSans-65" x="363.720703"/>
      <use xlink:href="#DejaVuSans-20" x="425.244141"/>
      <use xlink:href="#DejaVuSans-64" x="457.03125"/>
      <use xlink:href="#DejaVuSans-65" x="520.507812"/>
      <use xlink:href="#DejaVuSans-20" x="582.03125"/>
      <use xlink:href="#DejaVuSans-35" x="613.818359"/>
      <use xlink:href="#DejaVuSans-20" x="677.441406"/>
      <use xlink:href="#DejaVuSans-72" x="709.228516"/>
      <use xlink:href="#DejaVuSans-e9" x="748.091797"/>
      <use xlink:href="#DejaVuSans-70" x="809.615234"/>
      <use xlink:href="#DejaVuSans-e9" x="873.091797"/>
      <use xlink:href="#DejaVuSans-74" x="934.615234"/>
      <use xlink:href="#DejaVuSans-69" x="973.824219"/>
      <use xlink:href="#DejaVuSans-74" x="1001.607422"/>
      <use xlink:href="#DejaVuSans-69" x="1040.816406"/>
      <use xlink:href="#DejaVuSans-6f" x="1068.599609"/>
      <use xlink:href="#DejaVuSans-6e" x="1129.78125"/>
      <use xlink:href="#DejaVuSans-73" x="1193.160156"/>
      <use xlink:href="#DejaVuSans-20" x="1245.259766"/>
      <use xlink:href="#DejaVuSans-28" x="1277.046875"/>
      <use xlink:href="#DejaVuSans-73" x="1316.060547"/>
      <use xlink:href="#DejaVuSans-65" x="1368.160156"/>
      <use xlink:href="#DejaVuSans-63" x="1429.683594"/>
      <use xlink:href="#DejaVuSans-6f" x="1484.664062"/>
      <use xlink:href="#DejaVuSans-6e" x="1545.845703"/>
      <use xlink:href="#DejaVuSans-64" x="1609.224609"/>
      <use xlink:href="#DejaVuSans-65" x="1672.701172"/>
      <use xlink:href="#DejaVuSans-73" x="1734.224609"/>
      <use xlink:href="#DejaVuSans-2c" x="1786.324219"/>
      <use xlink:href="#DejaVuSans-20" x="1818.111328"/>
      <use xlink:href="#DejaVuSans-e9" x="1849.898438"/>
      <use xlink:href="#DejaVuSans-63" x="1911.421875"/>
      <use xlink:href="#DejaVuSans-68" x="1966.402344"/>
      <use xlink:href="#DejaVuSans-65" x="2029.78125"/>
      <use xlink:href="#DejaVuSans-6c" x="2091.304688"/>
      <use xlink:href="#DejaVuSans-6c" x="2119.087891"/>
      <use xlink:href="#DejaVuSans-65" x="2146.871094"/>
      <use xlink:href="#DejaVuSans-20" x="2208.394531"/>
      <use xlink:href="#DejaVuSans-6c" x="2240.181641"/>
      <use xlink:href="#DejaVuSans-6f" x="2267.964844"/>
      <use xlink:href="#DejaVuSans-67" x="2329.146484"/>
      <use xlink:href="#DejaVuSans-61" x="2392.623047"/>
      <use xlink:href="#DejaVuSans-72" x="2453.902344"/>
      <use xlink:href="#DejaVuSans-69" x="2495.015625"/>
      <use xlink:href="#DejaVuSans-74" x="2522.798828"/>
      <use xlink:href="#DejaVuSans-68" x="2562.007812"/>
      <use xlink:href="#DejaVuSans-6d" x="2625.386719"/>
      <use xlink:href="#DejaVuSans-69" x="2722.798828"/>
      <use xlink:href="#DejaVuSans-71" x="2750.582031"/>
      <use xlink:href="#DejaVuSans-75" x="2814.058594"/>
      <use xlink:href="#DejaVuSans-65" x="2877.4375"/>
      <use xlink:href="#DejaVuSans-29" x="2938.960938"/>
     </g>
    </g>
   </g>
   <g id="matplotlib.axis_4">
    <g id="ytick_3">
     <g id="line2d_109">
      <g>
       <use xlink:href="#mecfdfaefba" x="429.542995" y="63.490098" style="stroke: #000000; stroke-width: 0.8"/>
      </g>
     </g>
     <g id="text_14">
      <!-- B1 -->
      <g transform="translate(410.641901 66.909395) scale(0.09 -0.09)">
       <defs>
        <path id="DejaVuSans-42" d="M 1259 2228
L 1259 519
L 2272 519
Q 2781 519 3026 730
Q 3272 941 3272 1375
Q 3272 1813 3026 2020
Q 2781 2228 2272 2228
L 1259 2228
z
M 1259 4147
L 1259 2741
L 2194 2741
Q 2656 2741 2882 2914
Q 3109 3088 3109 3444
Q 3109 3797 2882 3972
Q 2656 4147 2194 4147
L 1259 4147
z
M 628 4666
L 2241 4666
Q 2963 4666 3353 4366
Q 3744 4066 3744 3513
Q 3744 3084 3544 2831
Q 3344 2578 2956 2516
Q 3422 2416 3680 2098
Q 3938 1781 3938 1306
Q 3938 681 3513 340
Q 3088 0 2303 0
L 628 0
L 628 4666
z
" transform="scale(0.015625)"/>
       </defs>
       <use xlink:href="#DejaVuSans-42"/>
       <use xlink:href="#DejaVuSans-31" x="68.603516"/>
      </g>
     </g>
    </g>
    <g id="ytick_4">
     <g id="line2d_110">
      <g>
       <use xlink:href="#mecfdfaefba" x="429.542995" y="116.10722" style="stroke: #000000; stroke-width: 0.8"/>
      </g>
     </g>
     <g id="text_15">
      <!-- B2 -->
      <g transform="translate(410.641901 119.526517) scale(0.09 -0.09)">
       <use xlink:href="#DejaVuSans-42"/>
       <use xlink:href="#DejaVuSans-32" x="68.603516"/>
      </g>
     </g>
    </g>
    <g id="ytick_5">
     <g id="line2d_111">
      <g>
       <use xlink:href="#mecfdfaefba" x="429.542995" y="168.724342" style="stroke: #000000; stroke-width: 0.8"/>
      </g>
     </g>
     <g id="text_16">
      <!-- C -->
      <g transform="translate(416.258464 172.143639) scale(0.09 -0.09)">
       <defs>
        <path id="DejaVuSans-43" d="M 4122 4306
L 4122 3641
Q 3803 3938 3442 4084
Q 3081 4231 2675 4231
Q 1875 4231 1450 3742
Q 1025 3253 1025 2328
Q 1025 1406 1450 917
Q 1875 428 2675 428
Q 3081 428 3442 575
Q 3803 722 4122 1019
L 4122 359
Q 3791 134 3420 21
Q 3050 -91 2638 -91
Q 1578 -91 968 557
Q 359 1206 359 2328
Q 359 3453 968 4101
Q 1578 4750 2638 4750
Q 3056 4750 3426 4639
Q 3797 4528 4122 4306
z
" transform="scale(0.015625)"/>
       </defs>
       <use xlink:href="#DejaVuSans-43"/>
      </g>
     </g>
    </g>
    <g id="ytick_6">
     <g id="line2d_112">
      <g>
       <use xlink:href="#mecfdfaefba" x="429.542995" y="221.341465" style="stroke: #000000; stroke-width: 0.8"/>
      </g>
     </g>
     <g id="text_17">
      <!-- D-probe -->
      <g transform="translate(386.396745 224.760762) scale(0.09 -0.09)">
       <defs>
        <path id="DejaVuSans-44" d="M 1259 4147
L 1259 519
L 2022 519
Q 2988 519 3436 956
Q 3884 1394 3884 2338
Q 3884 3275 3436 3711
Q 2988 4147 2022 4147
L 1259 4147
z
M 628 4666
L 1925 4666
Q 3281 4666 3915 4102
Q 4550 3538 4550 2338
Q 4550 1131 3912 565
Q 3275 0 1925 0
L 628 0
L 628 4666
z
" transform="scale(0.015625)"/>
        <path id="DejaVuSans-2d" d="M 313 2009
L 1997 2009
L 1997 1497
L 313 1497
L 313 2009
z
" transform="scale(0.015625)"/>
        <path id="DejaVuSans-62" d="M 3116 1747
Q 3116 2381 2855 2742
Q 2594 3103 2138 3103
Q 1681 3103 1420 2742
Q 1159 2381 1159 1747
Q 1159 1113 1420 752
Q 1681 391 2138 391
Q 2594 391 2855 752
Q 3116 1113 3116 1747
z
M 1159 2969
Q 1341 3281 1617 3432
Q 1894 3584 2278 3584
Q 2916 3584 3314 3078
Q 3713 2572 3713 1747
Q 3713 922 3314 415
Q 2916 -91 2278 -91
Q 1894 -91 1617 61
Q 1341 213 1159 525
L 1159 0
L 581 0
L 581 4863
L 1159 4863
L 1159 2969
z
" transform="scale(0.015625)"/>
       </defs>
       <use xlink:href="#DejaVuSans-44"/>
       <use xlink:href="#DejaVuSans-2d" x="77.001953"/>
       <use xlink:href="#DejaVuSans-70" x="113.085938"/>
       <use xlink:href="#DejaVuSans-72" x="176.5625"/>
       <use xlink:href="#DejaVuSans-6f" x="215.425781"/>
       <use xlink:href="#DejaVuSans-62" x="276.607422"/>
       <use xlink:href="#DejaVuSans-65" x="340.083984"/>
      </g>
     </g>
    </g>
   </g>
   <g id="patch_8">
    <path d="M -129231.882969 48.231132
L 450.606519 48.231132
L 450.606519 78.749063
L -129231.882969 78.749063
z
" clip-path="url(#p6897180048)" style="fill: #3b82c4"/>
   </g>
   <g id="patch_9">
    <path d="M -129231.882969 100.848255
L 456.834038 100.848255
L 456.834038 131.366186
L -129231.882969 131.366186
z
" clip-path="url(#p6897180048)" style="fill: #f28e2b"/>
   </g>
   <g id="patch_10">
    <path d="M -129231.882969 153.465377
L 664.799223 153.465377
L 664.799223 183.983308
L -129231.882969 183.983308
z
" clip-path="url(#p6897180048)" style="fill: #d45087"/>
   </g>
   <g id="patch_11">
    <path d="M -129231.882969 206.082499
L 692.243151 206.082499
L 692.243151 236.60043
L -129231.882969 236.60043
z
" clip-path="url(#p6897180048)" style="fill: #5a5a5a"/>
   </g>
   <g id="LineCollection_1">
    <path d="M 449.548357 63.490098
L 463.370843 63.490098
" clip-path="url(#p6897180048)" style="fill: none; stroke: #202020"/>
    <path d="M 442.07803 116.10722
L 466.924331 116.10722
" clip-path="url(#p6897180048)" style="fill: none; stroke: #202020"/>
    <path d="M 664.324967 168.724342
L 665.450363 168.724342
" clip-path="url(#p6897180048)" style="fill: none; stroke: #202020"/>
    <path d="M 691.352349 221.341465
L 692.778717 221.341465
" clip-path="url(#p6897180048)" style="fill: none; stroke: #202020"/>
   </g>
   <g id="line2d_113">
    <defs>
     <path id="madf381dd3e" d="M 0 3
L 0 -3
" style="stroke: #202020"/>
    </defs>
    <g clip-path="url(#p6897180048)">
     <use xlink:href="#madf381dd3e" x="449.548357" y="63.490098" style="fill: #202020; stroke: #202020"/>
     <use xlink:href="#madf381dd3e" x="442.07803" y="116.10722" style="fill: #202020; stroke: #202020"/>
     <use xlink:href="#madf381dd3e" x="664.324967" y="168.724342" style="fill: #202020; stroke: #202020"/>
     <use xlink:href="#madf381dd3e" x="691.352349" y="221.341465" style="fill: #202020; stroke: #202020"/>
    </g>
   </g>
   <g id="line2d_114">
    <g clip-path="url(#p6897180048)">
     <use xlink:href="#madf381dd3e" x="463.370843" y="63.490098" style="fill: #202020; stroke: #202020"/>
     <use xlink:href="#madf381dd3e" x="466.924331" y="116.10722" style="fill: #202020; stroke: #202020"/>
     <use xlink:href="#madf381dd3e" x="665.450363" y="168.724342" style="fill: #202020; stroke: #202020"/>
     <use xlink:href="#madf381dd3e" x="692.778717" y="221.341465" style="fill: #202020; stroke: #202020"/>
    </g>
   </g>
   <g id="patch_12">
    <path d="M 429.542995 246.018895
L 429.542995 38.812667
" style="fill: none; stroke: #000000; stroke-width: 0.8; stroke-linejoin: miter; stroke-linecap: square"/>
   </g>
   <g id="patch_13">
    <path d="M 429.542995 246.018895
L 705.313752 246.018895
" style="fill: none; stroke: #000000; stroke-width: 0.8; stroke-linejoin: miter; stroke-linecap: square"/>
   </g>
   <g id="text_18">
    <!-- 0,106 s -->
    <g transform="translate(456.995472 65.973535) scale(0.09 -0.09)">
     <defs>
      <path id="DejaVuSans-Bold-31" d="M 750 831
L 1813 831
L 1813 3847
L 722 3622
L 722 4441
L 1806 4666
L 2950 4666
L 2950 831
L 4013 831
L 4013 0
L 750 0
L 750 831
z
" transform="scale(0.015625)"/>
     </defs>
     <use xlink:href="#DejaVuSans-Bold-30"/>
     <use xlink:href="#DejaVuSans-Bold-2c" x="69.580078"/>
     <use xlink:href="#DejaVuSans-Bold-31" x="107.568359"/>
     <use xlink:href="#DejaVuSans-Bold-30" x="177.148438"/>
     <use xlink:href="#DejaVuSans-Bold-36" x="246.728516"/>
     <use xlink:href="#DejaVuSans-Bold-20" x="316.308594"/>
     <use xlink:href="#DejaVuSans-Bold-73" x="351.123047"/>
    </g>
   </g>
   <g id="text_19">
    <!-- 0,118 s -->
    <g transform="translate(463.222991 118.590658) scale(0.09 -0.09)">
     <defs>
      <path id="DejaVuSans-Bold-38" d="M 2228 2088
Q 1891 2088 1709 1903
Q 1528 1719 1528 1375
Q 1528 1031 1709 848
Q 1891 666 2228 666
Q 2563 666 2741 848
Q 2919 1031 2919 1375
Q 2919 1722 2741 1905
Q 2563 2088 2228 2088
z
M 1350 2484
Q 925 2613 709 2878
Q 494 3144 494 3541
Q 494 4131 934 4440
Q 1375 4750 2228 4750
Q 3075 4750 3515 4442
Q 3956 4134 3956 3541
Q 3956 3144 3739 2878
Q 3522 2613 3097 2484
Q 3572 2353 3814 2058
Q 4056 1763 4056 1313
Q 4056 619 3595 264
Q 3134 -91 2228 -91
Q 1319 -91 855 264
Q 391 619 391 1313
Q 391 1763 633 2058
Q 875 2353 1350 2484
z
M 1631 3419
Q 1631 3141 1786 2991
Q 1941 2841 2228 2841
Q 2509 2841 2662 2991
Q 2816 3141 2816 3419
Q 2816 3697 2662 3845
Q 2509 3994 2228 3994
Q 1941 3994 1786 3844
Q 1631 3694 1631 3419
z
" transform="scale(0.015625)"/>
     </defs>
     <use xlink:href="#DejaVuSans-Bold-30"/>
     <use xlink:href="#DejaVuSans-Bold-2c" x="69.580078"/>
     <use xlink:href="#DejaVuSans-Bold-31" x="107.568359"/>
     <use xlink:href="#DejaVuSans-Bold-31" x="177.148438"/>
     <use xlink:href="#DejaVuSans-Bold-38" x="246.728516"/>
     <use xlink:href="#DejaVuSans-Bold-20" x="316.308594"/>
     <use xlink:href="#DejaVuSans-Bold-73" x="351.123047"/>
    </g>
   </g>
   <g id="text_20">
    <!-- 4,718 s -->
    <g transform="translate(671.188176 171.20778) scale(0.09 -0.09)">
     <use xlink:href="#DejaVuSans-Bold-34"/>
     <use xlink:href="#DejaVuSans-Bold-2c" x="69.580078"/>
     <use xlink:href="#DejaVuSans-Bold-37" x="107.568359"/>
     <use xlink:href="#DejaVuSans-Bold-31" x="177.148438"/>
     <use xlink:href="#DejaVuSans-Bold-38" x="246.728516"/>
     <use xlink:href="#DejaVuSans-Bold-20" x="316.308594"/>
     <use xlink:href="#DejaVuSans-Bold-73" x="351.123047"/>
    </g>
   </g>
   <g id="text_21">
    <!-- 7,676 s -->
    <g transform="translate(698.632105 223.824902) scale(0.09 -0.09)">
     <use xlink:href="#DejaVuSans-Bold-37"/>
     <use xlink:href="#DejaVuSans-Bold-2c" x="69.580078"/>
     <use xlink:href="#DejaVuSans-Bold-36" x="107.568359"/>
     <use xlink:href="#DejaVuSans-Bold-37" x="177.148438"/>
     <use xlink:href="#DejaVuSans-Bold-36" x="246.728516"/>
     <use xlink:href="#DejaVuSans-Bold-20" x="316.308594"/>
     <use xlink:href="#DejaVuSans-Bold-73" x="351.123047"/>
    </g>
   </g>
   <g id="text_22">
    <!-- B. Coût propre des adaptateurs -->
    <g transform="translate(488.780717 32.812667) scale(0.1 -0.1)">
     <defs>
      <path id="DejaVuSans-fb" d="M 544 1381
L 544 3500
L 1119 3500
L 1119 1403
Q 1119 906 1312 657
Q 1506 409 1894 409
Q 2359 409 2629 706
Q 2900 1003 2900 1516
L 2900 3500
L 3475 3500
L 3475 0
L 2900 0
L 2900 538
Q 2691 219 2414 64
Q 2138 -91 1772 -91
Q 1169 -91 856 284
Q 544 659 544 1381
z
M 1991 3584
L 1991 3584
z
M 1753 5119
L 2216 5119
L 2981 3944
L 2547 3944
L 1984 4709
L 1422 3944
L 988 3944
L 1753 5119
z
" transform="scale(0.015625)"/>
     </defs>
     <use xlink:href="#DejaVuSans-42"/>
     <use xlink:href="#DejaVuSans-2e" x="68.603516"/>
     <use xlink:href="#DejaVuSans-20" x="100.390625"/>
     <use xlink:href="#DejaVuSans-43" x="132.177734"/>
     <use xlink:href="#DejaVuSans-6f" x="202.001953"/>
     <use xlink:href="#DejaVuSans-fb" x="263.183594"/>
     <use xlink:href="#DejaVuSans-74" x="326.5625"/>
     <use xlink:href="#DejaVuSans-20" x="365.771484"/>
     <use xlink:href="#DejaVuSans-70" x="397.558594"/>
     <use xlink:href="#DejaVuSans-72" x="461.035156"/>
     <use xlink:href="#DejaVuSans-6f" x="499.898438"/>
     <use xlink:href="#DejaVuSans-70" x="561.080078"/>
     <use xlink:href="#DejaVuSans-72" x="624.556641"/>
     <use xlink:href="#DejaVuSans-65" x="663.419922"/>
     <use xlink:href="#DejaVuSans-20" x="724.943359"/>
     <use xlink:href="#DejaVuSans-64" x="756.730469"/>
     <use xlink:href="#DejaVuSans-65" x="820.207031"/>
     <use xlink:href="#DejaVuSans-73" x="881.730469"/>
     <use xlink:href="#DejaVuSans-20" x="933.830078"/>
     <use xlink:href="#DejaVuSans-61" x="965.617188"/>
     <use xlink:href="#DejaVuSans-64" x="1026.896484"/>
     <use xlink:href="#DejaVuSans-61" x="1090.373047"/>
     <use xlink:href="#DejaVuSans-70" x="1151.652344"/>
     <use xlink:href="#DejaVuSans-74" x="1215.128906"/>
     <use xlink:href="#DejaVuSans-61" x="1254.337891"/>
     <use xlink:href="#DejaVuSans-74" x="1315.617188"/>
     <use xlink:href="#DejaVuSans-65" x="1354.826172"/>
     <use xlink:href="#DejaVuSans-75" x="1416.349609"/>
     <use xlink:href="#DejaVuSans-72" x="1479.728516"/>
     <use xlink:href="#DejaVuSans-73" x="1520.841797"/>
    </g>
   </g>
  </g>
  <g id="text_23">
   <!-- Benchmark confirmatoire à R = 100 000 -->
   <g transform="translate(236.177572 16.318125) scale(0.12 -0.12)">
    <defs>
     <path id="DejaVuSans-Bold-42" d="M 2456 2859
Q 2741 2859 2887 2984
Q 3034 3109 3034 3353
Q 3034 3594 2887 3720
Q 2741 3847 2456 3847
L 1791 3847
L 1791 2859
L 2456 2859
z
M 2497 819
Q 2859 819 3042 972
Q 3225 1125 3225 1434
Q 3225 1738 3044 1889
Q 2863 2041 2497 2041
L 1791 2041
L 1791 819
L 2497 819
z
M 3616 2497
Q 4003 2384 4215 2081
Q 4428 1778 4428 1338
Q 4428 663 3972 331
Q 3516 0 2584 0
L 588 0
L 588 4666
L 2394 4666
Q 3366 4666 3802 4372
Q 4238 4078 4238 3431
Q 4238 3091 4078 2852
Q 3919 2613 3616 2497
z
" transform="scale(0.015625)"/>
     <path id="DejaVuSans-Bold-65" d="M 4031 1759
L 4031 1441
L 1416 1441
Q 1456 1047 1700 850
Q 1944 653 2381 653
Q 2734 653 3104 758
Q 3475 863 3866 1075
L 3866 213
Q 3469 63 3072 -14
Q 2675 -91 2278 -91
Q 1328 -91 801 392
Q 275 875 275 1747
Q 275 2603 792 3093
Q 1309 3584 2216 3584
Q 3041 3584 3536 3087
Q 4031 2591 4031 1759
z
M 2881 2131
Q 2881 2450 2695 2645
Q 2509 2841 2209 2841
Q 1884 2841 1681 2658
Q 1478 2475 1428 2131
L 2881 2131
z
" transform="scale(0.015625)"/>
     <path id="DejaVuSans-Bold-6e" d="M 4056 2131
L 4056 0
L 2931 0
L 2931 347
L 2931 1631
Q 2931 2084 2911 2256
Q 2891 2428 2841 2509
Q 2775 2619 2662 2680
Q 2550 2741 2406 2741
Q 2056 2741 1856 2470
Q 1656 2200 1656 1722
L 1656 0
L 538 0
L 538 3500
L 1656 3500
L 1656 2988
Q 1909 3294 2193 3439
Q 2478 3584 2822 3584
Q 3428 3584 3742 3212
Q 4056 2841 4056 2131
z
" transform="scale(0.015625)"/>
     <path id="DejaVuSans-Bold-63" d="M 3366 3391
L 3366 2478
Q 3138 2634 2908 2709
Q 2678 2784 2431 2784
Q 1963 2784 1702 2511
Q 1441 2238 1441 1747
Q 1441 1256 1702 982
Q 1963 709 2431 709
Q 2694 709 2930 787
Q 3166 866 3366 1019
L 3366 103
Q 3103 6 2833 -42
Q 2563 -91 2291 -91
Q 1344 -91 809 395
Q 275 881 275 1747
Q 275 2613 809 3098
Q 1344 3584 2291 3584
Q 2566 3584 2833 3536
Q 3100 3488 3366 3391
z
" transform="scale(0.015625)"/>
     <path id="DejaVuSans-Bold-68" d="M 4056 2131
L 4056 0
L 2931 0
L 2931 347
L 2931 1625
Q 2931 2084 2911 2256
Q 2891 2428 2841 2509
Q 2775 2619 2662 2680
Q 2550 2741 2406 2741
Q 2056 2741 1856 2470
Q 1656 2200 1656 1722
L 1656 0
L 538 0
L 538 4863
L 1656 4863
L 1656 2988
Q 1909 3294 2193 3439
Q 2478 3584 2822 3584
Q 3428 3584 3742 3212
Q 4056 2841 4056 2131
z
" transform="scale(0.015625)"/>
     <path id="DejaVuSans-Bold-6d" d="M 3781 2919
Q 3994 3244 4286 3414
Q 4578 3584 4928 3584
Q 5531 3584 5847 3212
Q 6163 2841 6163 2131
L 6163 0
L 5038 0
L 5038 1825
Q 5041 1866 5042 1909
Q 5044 1953 5044 2034
Q 5044 2406 4934 2573
Q 4825 2741 4581 2741
Q 4263 2741 4089 2478
Q 3916 2216 3909 1719
L 3909 0
L 2784 0
L 2784 1825
Q 2784 2406 2684 2573
Q 2584 2741 2328 2741
Q 2006 2741 1831 2477
Q 1656 2213 1656 1722
L 1656 0
L 531 0
L 531 3500
L 1656 3500
L 1656 2988
Q 1863 3284 2130 3434
Q 2397 3584 2719 3584
Q 3081 3584 3359 3409
Q 3638 3234 3781 2919
z
" transform="scale(0.015625)"/>
     <path id="DejaVuSans-Bold-61" d="M 2106 1575
Q 1756 1575 1579 1456
Q 1403 1338 1403 1106
Q 1403 894 1545 773
Q 1688 653 1941 653
Q 2256 653 2472 879
Q 2688 1106 2688 1447
L 2688 1575
L 2106 1575
z
M 3816 1997
L 3816 0
L 2688 0
L 2688 519
Q 2463 200 2181 54
Q 1900 -91 1497 -91
Q 953 -91 614 226
Q 275 544 275 1050
Q 275 1666 698 1953
Q 1122 2241 2028 2241
L 2688 2241
L 2688 2328
Q 2688 2594 2478 2717
Q 2269 2841 1825 2841
Q 1466 2841 1156 2769
Q 847 2697 581 2553
L 581 3406
Q 941 3494 1303 3539
Q 1666 3584 2028 3584
Q 2975 3584 3395 3211
Q 3816 2838 3816 1997
z
" transform="scale(0.015625)"/>
     <path id="DejaVuSans-Bold-72" d="M 3138 2547
Q 2991 2616 2845 2648
Q 2700 2681 2553 2681
Q 2122 2681 1889 2404
Q 1656 2128 1656 1613
L 1656 0
L 538 0
L 538 3500
L 1656 3500
L 1656 2925
Q 1872 3269 2151 3426
Q 2431 3584 2822 3584
Q 2878 3584 2943 3579
Q 3009 3575 3134 3559
L 3138 2547
z
" transform="scale(0.015625)"/>
     <path id="DejaVuSans-Bold-6b" d="M 538 4863
L 1656 4863
L 1656 2216
L 2944 3500
L 4244 3500
L 2534 1894
L 4378 0
L 3022 0
L 1656 1459
L 1656 0
L 538 0
L 538 4863
z
" transform="scale(0.015625)"/>
     <path id="DejaVuSans-Bold-6f" d="M 2203 2784
Q 1831 2784 1636 2517
Q 1441 2250 1441 1747
Q 1441 1244 1636 976
Q 1831 709 2203 709
Q 2569 709 2762 976
Q 2956 1244 2956 1747
Q 2956 2250 2762 2517
Q 2569 2784 2203 2784
z
M 2203 3584
Q 3106 3584 3614 3096
Q 4122 2609 4122 1747
Q 4122 884 3614 396
Q 3106 -91 2203 -91
Q 1297 -91 786 396
Q 275 884 275 1747
Q 275 2609 786 3096
Q 1297 3584 2203 3584
z
" transform="scale(0.015625)"/>
     <path id="DejaVuSans-Bold-66" d="M 2841 4863
L 2841 4128
L 2222 4128
Q 1984 4128 1890 4042
Q 1797 3956 1797 3744
L 1797 3500
L 2753 3500
L 2753 2700
L 1797 2700
L 1797 0
L 678 0
L 678 2700
L 122 2700
L 122 3500
L 678 3500
L 678 3744
Q 678 4316 997 4589
Q 1316 4863 1984 4863
L 2841 4863
z
" transform="scale(0.015625)"/>
     <path id="DejaVuSans-Bold-69" d="M 538 3500
L 1656 3500
L 1656 0
L 538 0
L 538 3500
z
M 538 4863
L 1656 4863
L 1656 3950
L 538 3950
L 538 4863
z
" transform="scale(0.015625)"/>
     <path id="DejaVuSans-Bold-74" d="M 1759 4494
L 1759 3500
L 2913 3500
L 2913 2700
L 1759 2700
L 1759 1216
Q 1759 972 1856 886
Q 1953 800 2241 800
L 2816 800
L 2816 0
L 1856 0
Q 1194 0 917 276
Q 641 553 641 1216
L 641 2700
L 84 2700
L 84 3500
L 641 3500
L 641 4494
L 1759 4494
z
" transform="scale(0.015625)"/>
     <path id="DejaVuSans-Bold-e0" d="M 2106 1575
Q 1756 1575 1579 1456
Q 1403 1338 1403 1106
Q 1403 894 1545 773
Q 1688 653 1941 653
Q 2256 653 2472 879
Q 2688 1106 2688 1447
L 2688 1575
L 2106 1575
z
M 3816 1997
L 3816 0
L 2688 0
L 2688 519
Q 2463 200 2181 54
Q 1900 -91 1497 -91
Q 953 -91 614 226
Q 275 544 275 1050
Q 275 1666 698 1953
Q 1122 2241 2028 2241
L 2688 2241
L 2688 2328
Q 2688 2594 2478 2717
Q 2269 2841 1825 2841
Q 1466 2841 1156 2769
Q 847 2697 581 2553
L 581 3406
Q 941 3494 1303 3539
Q 1666 3584 2028 3584
Q 2975 3584 3395 3211
Q 3816 2838 3816 1997
z
M 1759 5119
L 2641 3944
L 2028 3944
L 875 5119
L 1759 5119
z
" transform="scale(0.015625)"/>
     <path id="DejaVuSans-Bold-52" d="M 2297 2597
Q 2675 2597 2839 2737
Q 3003 2878 3003 3200
Q 3003 3519 2839 3656
Q 2675 3794 2297 3794
L 1791 3794
L 1791 2597
L 2297 2597
z
M 1791 1766
L 1791 0
L 588 0
L 588 4666
L 2425 4666
Q 3347 4666 3776 4356
Q 4206 4047 4206 3378
Q 4206 2916 3982 2619
Q 3759 2322 3309 2181
Q 3556 2125 3751 1926
Q 3947 1728 4147 1325
L 4800 0
L 3519 0
L 2950 1159
Q 2778 1509 2601 1637
Q 2425 1766 2131 1766
L 1791 1766
z
" transform="scale(0.015625)"/>
     <path id="DejaVuSans-Bold-3d" d="M 678 3084
L 4684 3084
L 4684 2350
L 678 2350
L 678 3084
z
M 678 1663
L 4684 1663
L 4684 922
L 678 922
L 678 1663
z
" transform="scale(0.015625)"/>
    </defs>
    <use xlink:href="#DejaVuSans-Bold-42"/>
    <use xlink:href="#DejaVuSans-Bold-65" x="76.220703"/>
    <use xlink:href="#DejaVuSans-Bold-6e" x="144.042969"/>
    <use xlink:href="#DejaVuSans-Bold-63" x="215.234375"/>
    <use xlink:href="#DejaVuSans-Bold-68" x="274.511719"/>
    <use xlink:href="#DejaVuSans-Bold-6d" x="345.703125"/>
    <use xlink:href="#DejaVuSans-Bold-61" x="449.902344"/>
    <use xlink:href="#DejaVuSans-Bold-72" x="517.382812"/>
    <use xlink:href="#DejaVuSans-Bold-6b" x="566.699219"/>
    <use xlink:href="#DejaVuSans-Bold-20" x="633.203125"/>
    <use xlink:href="#DejaVuSans-Bold-63" x="668.017578"/>
    <use xlink:href="#DejaVuSans-Bold-6f" x="727.294922"/>
    <use xlink:href="#DejaVuSans-Bold-6e" x="795.996094"/>
    <use xlink:href="#DejaVuSans-Bold-66" x="867.1875"/>
    <use xlink:href="#DejaVuSans-Bold-69" x="910.693359"/>
    <use xlink:href="#DejaVuSans-Bold-72" x="944.970703"/>
    <use xlink:href="#DejaVuSans-Bold-6d" x="994.287109"/>
    <use xlink:href="#DejaVuSans-Bold-61" x="1098.486328"/>
    <use xlink:href="#DejaVuSans-Bold-74" x="1165.966797"/>
    <use xlink:href="#DejaVuSans-Bold-6f" x="1213.769531"/>
    <use xlink:href="#DejaVuSans-Bold-69" x="1282.470703"/>
    <use xlink:href="#DejaVuSans-Bold-72" x="1316.748047"/>
    <use xlink:href="#DejaVuSans-Bold-65" x="1366.064453"/>
    <use xlink:href="#DejaVuSans-Bold-20" x="1433.886719"/>
    <use xlink:href="#DejaVuSans-Bold-e0" x="1468.701172"/>
    <use xlink:href="#DejaVuSans-Bold-20" x="1536.181641"/>
    <use xlink:href="#DejaVuSans-Bold-52" x="1570.996094"/>
    <use xlink:href="#DejaVuSans-Bold-20" x="1647.998047"/>
    <use xlink:href="#DejaVuSans-Bold-3d" x="1682.8125"/>
    <use xlink:href="#DejaVuSans-Bold-20" x="1766.601562"/>
    <use xlink:href="#DejaVuSans-Bold-31" x="1801.416016"/>
    <use xlink:href="#DejaVuSans-Bold-30" x="1870.996094"/>
    <use xlink:href="#DejaVuSans-Bold-30" x="1940.576172"/>
    <use xlink:href="#DejaVuSans-Bold-20" x="2010.15625"/>
    <use xlink:href="#DejaVuSans-Bold-30" x="2044.970703"/>
    <use xlink:href="#DejaVuSans-Bold-30" x="2114.550781"/>
    <use xlink:href="#DejaVuSans-Bold-30" x="2184.130859"/>
   </g>
  </g>
  <g id="text_24">
   <!-- CPython 3.11.15, 16 processeurs logiques. Les temps caractérisent cette implémentation. -->
   <g style="fill: #444444" transform="translate(190.624135 283.27176) scale(0.08 -0.08)">
    <defs>
     <path id="DejaVuSans-79" d="M 2059 -325
Q 1816 -950 1584 -1140
Q 1353 -1331 966 -1331
L 506 -1331
L 506 -850
L 844 -850
Q 1081 -850 1212 -737
Q 1344 -625 1503 -206
L 1606 56
L 191 3500
L 800 3500
L 1894 763
L 2988 3500
L 3597 3500
L 2059 -325
z
" transform="scale(0.015625)"/>
     <path id="DejaVuSans-33" d="M 2597 2516
Q 3050 2419 3304 2112
Q 3559 1806 3559 1356
Q 3559 666 3084 287
Q 2609 -91 1734 -91
Q 1441 -91 1130 -33
Q 819 25 488 141
L 488 750
Q 750 597 1062 519
Q 1375 441 1716 441
Q 2309 441 2620 675
Q 2931 909 2931 1356
Q 2931 1769 2642 2001
Q 2353 2234 1838 2234
L 1294 2234
L 1294 2753
L 1863 2753
Q 2328 2753 2575 2939
Q 2822 3125 2822 3475
Q 2822 3834 2567 4026
Q 2313 4219 1838 4219
Q 1578 4219 1281 4162
Q 984 4106 628 3988
L 628 4550
Q 988 4650 1302 4700
Q 1616 4750 1894 4750
Q 2613 4750 3031 4423
Q 3450 4097 3450 3541
Q 3450 3153 3228 2886
Q 3006 2619 2597 2516
z
" transform="scale(0.015625)"/>
     <path id="DejaVuSans-4c" d="M 628 4666
L 1259 4666
L 1259 531
L 3531 531
L 3531 0
L 628 0
L 628 4666
z
" transform="scale(0.015625)"/>
    </defs>
    <use xlink:href="#DejaVuSans-43"/>
    <use xlink:href="#DejaVuSans-50" x="69.824219"/>
    <use xlink:href="#DejaVuSans-79" x="130.126953"/>
    <use xlink:href="#DejaVuSans-74" x="189.306641"/>
    <use xlink:href="#DejaVuSans-68" x="228.515625"/>
    <use xlink:href="#DejaVuSans-6f" x="291.894531"/>
    <use xlink:href="#DejaVuSans-6e" x="353.076172"/>
    <use xlink:href="#DejaVuSans-20" x="416.455078"/>
    <use xlink:href="#DejaVuSans-33" x="448.242188"/>
    <use xlink:href="#DejaVuSans-2e" x="511.865234"/>
    <use xlink:href="#DejaVuSans-31" x="543.652344"/>
    <use xlink:href="#DejaVuSans-31" x="607.275391"/>
    <use xlink:href="#DejaVuSans-2e" x="670.898438"/>
    <use xlink:href="#DejaVuSans-31" x="702.685547"/>
    <use xlink:href="#DejaVuSans-35" x="766.308594"/>
    <use xlink:href="#DejaVuSans-2c" x="829.931641"/>
    <use xlink:href="#DejaVuSans-20" x="861.71875"/>
    <use xlink:href="#DejaVuSans-31" x="893.505859"/>
    <use xlink:href="#DejaVuSans-36" x="957.128906"/>
    <use xlink:href="#DejaVuSans-20" x="1020.751953"/>
    <use xlink:href="#DejaVuSans-70" x="1052.539062"/>
    <use xlink:href="#DejaVuSans-72" x="1116.015625"/>
    <use xlink:href="#DejaVuSans-6f" x="1154.878906"/>
    <use xlink:href="#DejaVuSans-63" x="1216.060547"/>
    <use xlink:href="#DejaVuSans-65" x="1271.041016"/>
    <use xlink:href="#DejaVuSans-73" x="1332.564453"/>
    <use xlink:href="#DejaVuSans-73" x="1384.664062"/>
    <use xlink:href="#DejaVuSans-65" x="1436.763672"/>
    <use xlink:href="#DejaVuSans-75" x="1498.287109"/>
    <use xlink:href="#DejaVuSans-72" x="1561.666016"/>
    <use xlink:href="#DejaVuSans-73" x="1602.779297"/>
    <use xlink:href="#DejaVuSans-20" x="1654.878906"/>
    <use xlink:href="#DejaVuSans-6c" x="1686.666016"/>
    <use xlink:href="#DejaVuSans-6f" x="1714.449219"/>
    <use xlink:href="#DejaVuSans-67" x="1775.630859"/>
    <use xlink:href="#DejaVuSans-69" x="1839.107422"/>
    <use xlink:href="#DejaVuSans-71" x="1866.890625"/>
    <use xlink:href="#DejaVuSans-75" x="1930.367188"/>
    <use xlink:href="#DejaVuSans-65" x="1993.746094"/>
    <use xlink:href="#DejaVuSans-73" x="2055.269531"/>
    <use xlink:href="#DejaVuSans-2e" x="2107.369141"/>
    <use xlink:href="#DejaVuSans-20" x="2139.15625"/>
    <use xlink:href="#DejaVuSans-4c" x="2170.943359"/>
    <use xlink:href="#DejaVuSans-65" x="2224.90625"/>
    <use xlink:href="#DejaVuSans-73" x="2286.429688"/>
    <use xlink:href="#DejaVuSans-20" x="2338.529297"/>
    <use xlink:href="#DejaVuSans-74" x="2370.316406"/>
    <use xlink:href="#DejaVuSans-65" x="2409.525391"/>
    <use xlink:href="#DejaVuSans-6d" x="2471.048828"/>
    <use xlink:href="#DejaVuSans-70" x="2568.460938"/>
    <use xlink:href="#DejaVuSans-73" x="2631.9375"/>
    <use xlink:href="#DejaVuSans-20" x="2684.037109"/>
    <use xlink:href="#DejaVuSans-63" x="2715.824219"/>
    <use xlink:href="#DejaVuSans-61" x="2770.804688"/>
    <use xlink:href="#DejaVuSans-72" x="2832.083984"/>
    <use xlink:href="#DejaVuSans-61" x="2873.197266"/>
    <use xlink:href="#DejaVuSans-63" x="2934.476562"/>
    <use xlink:href="#DejaVuSans-74" x="2989.457031"/>
    <use xlink:href="#DejaVuSans-e9" x="3028.666016"/>
    <use xlink:href="#DejaVuSans-72" x="3090.189453"/>
    <use xlink:href="#DejaVuSans-69" x="3131.302734"/>
    <use xlink:href="#DejaVuSans-73" x="3159.085938"/>
    <use xlink:href="#DejaVuSans-65" x="3211.185547"/>
    <use xlink:href="#DejaVuSans-6e" x="3272.708984"/>
    <use xlink:href="#DejaVuSans-74" x="3336.087891"/>
    <use xlink:href="#DejaVuSans-20" x="3375.296875"/>
    <use xlink:href="#DejaVuSans-63" x="3407.083984"/>
    <use xlink:href="#DejaVuSans-65" x="3462.064453"/>
    <use xlink:href="#DejaVuSans-74" x="3523.587891"/>
    <use xlink:href="#DejaVuSans-74" x="3562.796875"/>
    <use xlink:href="#DejaVuSans-65" x="3602.005859"/>
    <use xlink:href="#DejaVuSans-20" x="3663.529297"/>
    <use xlink:href="#DejaVuSans-69" x="3695.316406"/>
    <use xlink:href="#DejaVuSans-6d" x="3723.099609"/>
    <use xlink:href="#DejaVuSans-70" x="3820.511719"/>
    <use xlink:href="#DejaVuSans-6c" x="3883.988281"/>
    <use xlink:href="#DejaVuSans-e9" x="3911.771484"/>
    <use xlink:href="#DejaVuSans-6d" x="3973.294922"/>
    <use xlink:href="#DejaVuSans-65" x="4070.707031"/>
    <use xlink:href="#DejaVuSans-6e" x="4132.230469"/>
    <use xlink:href="#DejaVuSans-74" x="4195.609375"/>
    <use xlink:href="#DejaVuSans-61" x="4234.818359"/>
    <use xlink:href="#DejaVuSans-74" x="4296.097656"/>
    <use xlink:href="#DejaVuSans-69" x="4335.306641"/>
    <use xlink:href="#DejaVuSans-6f" x="4363.089844"/>
    <use xlink:href="#DejaVuSans-6e" x="4424.271484"/>
    <use xlink:href="#DejaVuSans-2e" x="4487.650391"/>
   </g>
  </g>
 </g>
 <defs>
  <clipPath id="p7dedb4eebf">
   <rect x="74.940156" y="38.812667" width="275.770757" height="207.206227"/>
  </clipPath>
  <clipPath id="p6897180048">
   <rect x="429.542995" y="38.812667" width="275.770757" height="207.206227"/>
  </clipPath>
 </defs>
</svg>
